<svg width="90" height="29" viewBox="0 0 90 29" fill="none" xmlns="http://www.w3.org/2000/svg">
<g clip-path="url(#clip0_32_839)">
<path d="M25.7997 19.9942C25.6585 19.6534 25.5262 19.2951 25.385 18.9893L24.7321 17.5301L24.7056 17.5039C22.7644 13.3097 20.6909 9.04562 18.4938 4.85144L18.4056 4.67668C18.185 4.266 17.9644 3.81163 17.735 3.39222C17.4527 2.89416 17.1791 2.36115 16.7291 1.85435C16.2905 1.32408 15.7385 0.896848 15.1128 0.603488C14.4872 0.310129 13.8037 0.157959 13.1115 0.157959C12.4193 0.157959 11.7357 0.310129 11.1101 0.603488C10.4845 0.896848 9.93248 1.32408 9.49384 1.85435C9.07913 2.36115 8.77031 2.89416 8.48795 3.39222C8.26737 3.84659 8.04678 4.29222 7.81737 4.7029L7.72913 4.87765C5.56737 9.07183 3.45854 13.3359 1.51737 17.5301L1.46443 17.5825C1.27031 18.0369 1.0409 18.5087 0.820308 19.0155C0.679131 19.3213 0.537955 19.6534 0.396778 20.0204C0.0156308 20.9814 -0.106082 22.0241 0.0436364 23.0458C0.193354 24.0676 0.609335 25.0331 1.25058 25.8471C1.89183 26.6612 2.73621 27.2957 3.70051 27.6882C4.6648 28.0807 5.71573 28.2176 6.74972 28.0854C7.74102 27.9562 8.69555 27.6292 9.5556 27.1243C10.7027 26.4864 11.8056 25.5602 13.0409 24.2233C14.2762 25.5602 15.4056 26.4864 16.5262 27.133C17.6038 27.7594 18.8242 28.1051 20.0732 28.1378C21.5197 28.1438 22.9196 27.6313 24.0143 26.695C25.109 25.7587 25.8246 24.4617 26.0291 23.0437C26.2655 22.0246 26.1855 20.9587 25.7997 19.9854V19.9942ZM13.1291 21.4446C11.6115 19.5223 10.6232 17.7573 10.288 16.2456C10.149 15.6855 10.1191 15.1042 10.1997 14.533C10.2615 14.0874 10.4291 13.6942 10.6585 13.3621C11.188 12.6019 12.1144 12.1301 13.1291 12.1301C13.611 12.1155 14.089 12.2196 14.5202 12.4332C14.9514 12.6467 15.3224 12.9629 15.5997 13.3534C15.8291 13.7029 15.9968 14.0874 16.0497 14.533C16.138 15.0398 16.1027 15.6252 15.9615 16.2456C15.6262 17.7311 14.638 19.5136 13.1291 21.4446ZM24.3703 22.7378C24.2701 23.4578 23.9811 24.1392 23.5321 24.7141C23.0831 25.289 22.4899 25.7374 21.8115 26.0145C21.1409 26.2942 20.3997 26.3728 19.6762 26.2942C18.9703 26.2068 18.2644 25.9796 17.5409 25.5602C16.3396 24.8249 15.2594 23.9113 14.338 22.8514C16.1909 20.5796 17.3115 18.5087 17.735 16.665C17.938 15.7912 17.9644 15.0048 17.8762 14.2796C17.766 13.5922 17.5072 12.9364 17.1174 12.3573C16.6723 11.7292 16.0783 11.2191 15.3874 10.8717C14.6966 10.5243 13.9302 10.3503 13.1556 10.365C11.5232 10.365 10.0674 11.1165 9.18501 12.3485C8.78781 12.9262 8.53111 13.5872 8.43501 14.2796C8.32031 15.0136 8.34678 15.8262 8.57619 16.665C8.99972 18.5087 10.1468 20.6058 11.9732 22.8689C11.0675 23.9491 9.98475 24.8706 8.77031 25.5951C8.03795 26.0145 7.3409 26.233 6.63501 26.3204C5.53726 26.4596 4.42838 26.1642 3.54939 25.4982C2.6704 24.8323 2.09235 23.8497 1.9409 22.7641C1.85266 22.065 1.91443 21.366 2.19678 20.5796C2.28501 20.3 2.41737 20.0204 2.55854 19.6883C2.75266 19.234 2.98207 18.7621 3.20266 18.2903L3.23795 18.2291C5.14384 14.0611 7.22619 9.80581 9.38795 5.63785L9.47619 5.46309C9.69678 5.04367 9.91737 4.59804 10.1468 4.17863C10.3762 3.73299 10.6232 3.30484 10.9409 2.95532C11.2158 2.63029 11.5594 2.3689 11.9474 2.18955C12.3354 2.0102 12.7583 1.91726 13.1865 1.91726C13.6146 1.91726 14.0376 2.0102 14.4256 2.18955C14.8136 2.3689 15.1571 2.63029 15.4321 2.95532C15.7409 3.30484 15.9968 3.73299 16.2262 4.17863C16.4468 4.59804 16.6674 5.05241 16.8968 5.46309L16.985 5.63785C19.138 9.80581 21.2203 14.0611 23.1615 18.2291L23.188 18.2553C23.4174 18.7097 23.6115 19.2165 23.8321 19.6534C23.9732 19.9942 24.1144 20.265 24.2027 20.5534C24.3703 21.3398 24.4585 22.0388 24.3703 22.7378ZM36.6527 21.2524C35.9878 21.262 35.3292 21.1233 34.7259 20.8465C34.1225 20.5697 33.5898 20.1619 33.1674 19.6534C32.218 18.5699 31.7142 17.1728 31.7556 15.7388C31.7411 14.2737 32.2612 12.8526 33.2203 11.7369C33.664 11.2219 34.2162 10.8095 34.8382 10.5287C35.4602 10.2479 36.1368 10.1055 36.8203 10.1116C37.4635 10.0942 38.1006 10.239 38.6717 10.5325C39.2428 10.826 39.7291 11.2585 40.085 11.7893L40.1732 10.4175H42.7497V20.9728H40.1644L40.0762 19.4349C39.7093 20.0017 39.2021 20.4662 38.603 20.7843C38.0038 21.1024 37.3324 21.2635 36.6527 21.2524ZM37.3232 18.7359C37.835 18.7359 38.285 18.5961 38.7085 18.3427C39.0968 18.0631 39.4144 17.6961 39.6615 17.2505C39.8821 16.8048 39.9968 16.2718 39.9968 15.6777C40.0312 15.1616 39.9297 14.6455 39.7024 14.1799C39.475 13.7143 39.1295 13.3151 38.6997 13.0213C38.2867 12.7665 37.8099 12.6314 37.3232 12.6314C36.8366 12.6314 36.3598 12.7665 35.9468 13.0213C35.5585 13.301 35.2409 13.6679 34.9938 14.1136C34.7605 14.605 34.6457 15.1435 34.6585 15.6864C34.6241 16.2025 34.7256 16.7185 34.9529 17.1841C35.1803 17.6497 35.5258 18.0489 35.9556 18.3427C36.3703 18.5961 36.8203 18.7359 37.3232 18.7359ZM47.1615 7.56892C47.1615 7.87474 47.1085 8.15435 46.9674 8.38154C46.8262 8.59998 46.6321 8.80095 46.3762 8.94076C46.1203 9.08057 45.8468 9.13299 45.5644 9.13299C45.2821 9.13299 44.9997 9.08057 44.7438 8.94076C44.5018 8.80734 44.2983 8.61483 44.1527 8.38154C44.016 8.13262 43.949 7.85208 43.9585 7.56892C43.9585 7.25435 44.0203 6.97474 44.1527 6.7563C44.2938 6.49416 44.4968 6.33688 44.7438 6.19707C44.9997 6.05727 45.2732 5.9961 45.5644 5.9961C45.8453 5.98969 46.123 6.05556 46.3705 6.18728C46.6179 6.319 46.8266 6.51205 46.9762 6.74756C47.1046 7.00231 47.1682 7.28427 47.1615 7.56892ZM44.1615 20.9378V10.4H46.9674V20.9553H44.1527L44.1615 20.9378ZM54.4674 13.1611V13.1961C54.335 13.1349 54.1585 13.1087 54.0262 13.0825C53.8497 13.0476 53.7085 13.0476 53.5409 13.0476C52.7556 13.0476 52.1644 13.2747 51.7762 13.7466C51.3527 14.2272 51.1585 14.9 51.1585 15.765V20.9466H48.3438V10.3912H50.9291L51.0174 11.9903C51.2997 11.4311 51.635 11.0116 52.1115 10.6971C52.5854 10.3914 53.1434 10.2388 53.7085 10.2602C53.9115 10.2602 54.1056 10.2777 54.2732 10.3126C54.3615 10.3388 54.4144 10.3388 54.4674 10.365V13.1611ZM55.5968 20.9378V6.066H58.4027V11.7456C58.7997 11.2388 59.2497 10.8456 59.8144 10.5398C60.7084 10.1057 61.724 9.98259 62.6973 10.1903C63.6707 10.3979 64.545 10.9243 65.1791 11.6845C66.1306 12.7702 66.6346 14.1708 66.5909 15.6078C66.6054 17.0729 66.0853 18.494 65.1262 19.6097C64.6825 20.1247 64.1303 20.5371 63.5083 20.8179C62.8863 21.0987 62.2097 21.2411 61.5262 21.2349C60.883 21.2524 60.2459 21.1075 59.6748 20.8141C59.1037 20.5206 58.6174 20.0881 58.2615 19.5573L58.1732 20.9291L55.5968 20.9553V20.9378ZM61.0233 18.7359C61.5262 18.7359 61.9762 18.5961 62.3997 18.3427C62.788 18.0631 63.1056 17.6961 63.3527 17.2505C63.5821 16.8048 63.688 16.2718 63.688 15.6777C63.688 15.0922 63.5821 14.5592 63.3527 14.1136C63.1209 13.6839 62.7954 13.3107 62.3997 13.0213C61.9867 12.7665 61.5099 12.6314 61.0233 12.6314C60.5366 12.6314 60.0598 12.7665 59.6468 13.0213C59.2497 13.301 58.9409 13.6679 58.685 14.1136C58.4517 14.605 58.3369 15.1435 58.3497 15.6864C58.3153 16.2025 58.4168 16.7185 58.6441 17.1841C58.8715 17.6497 59.2169 18.0489 59.6468 18.3427C60.0615 18.5961 60.5115 18.7359 61.0233 18.7359ZM67.6497 20.9466V10.3912H70.235L70.3232 11.7631C70.6481 11.2372 71.109 10.8069 71.6581 10.5165C72.2073 10.2262 72.8248 10.0864 73.4468 10.1116C74.158 10.0995 74.8571 10.2952 75.4566 10.6744C76.0561 11.0537 76.5294 11.5995 76.8174 12.2437C77.1262 12.9078 77.2938 13.7291 77.2938 14.6466V20.9728H74.4791V15.0136C74.4791 14.2796 74.3115 13.7029 73.9762 13.2747C73.6409 12.8553 73.1821 12.6281 72.5997 12.6281C72.1762 12.6281 71.8056 12.7155 71.4791 12.9078C71.1703 13.1087 70.9144 13.3621 70.7203 13.7204C70.524 14.0825 70.4267 14.4891 70.438 14.9V20.9466H67.6497ZM78.6968 20.9466V6.05727H81.5115V11.7369C81.8927 11.2273 82.3887 10.8127 82.96 10.526C83.5313 10.2393 84.1622 10.0885 84.8027 10.0854C85.4675 10.0758 86.1261 10.2145 86.7294 10.4913C87.3328 10.7682 87.8655 11.1759 88.2879 11.6845C89.2326 12.7701 89.733 14.1665 89.6909 15.599C89.7062 17.0643 89.186 18.4857 88.2262 19.601C87.7825 20.1159 87.2303 20.5284 86.6083 20.8092C85.9863 21.09 85.3097 21.2323 84.6262 21.2262C83.983 21.2436 83.3459 21.0988 82.7748 20.8053C82.2037 20.5118 81.7174 20.0794 81.3615 19.5485L81.2821 20.9204L78.6968 20.9466ZM84.1497 18.7359C84.6615 18.7359 85.1115 18.5961 85.5262 18.3427C85.9232 18.0631 86.2321 17.6961 86.488 17.2505C86.7085 16.8048 86.8232 16.2718 86.8232 15.6777C86.8576 15.1616 86.7562 14.6455 86.5289 14.1799C86.3015 13.7143 85.956 13.3151 85.5262 13.0213C85.1132 12.7665 84.6363 12.6314 84.1497 12.6314C83.6631 12.6314 83.1862 12.7665 82.7732 13.0213C82.385 13.301 82.0674 13.6679 81.8203 14.1136C81.574 14.6006 81.4585 15.1423 81.485 15.6864C81.4506 16.2025 81.5521 16.7185 81.7794 17.1841C82.0068 17.6497 82.3522 18.0489 82.7821 18.3427C83.1968 18.5961 83.6203 18.7359 84.1497 18.7359Z" fill="#FF385C"/>
</g>
<defs>
<clipPath id="clip0_32_839">
<rect width="90" height="27.9612" fill="white" transform="translate(0 0.177246)"/>
</clipPath>
</defs>
</svg>
