<svg width="90" height="29" viewBox="0 0 90 29" fill="none" xmlns="http://www.w3.org/2000/svg">
<g clip-path="url(#clip0_32_841)">
<path fill-rule="evenodd" clip-rule="evenodd" d="M55.8341 22.0438C50.604 26.0181 43.0234 28.1385 36.4966 28.1385C27.345 28.1385 19.1062 24.6489 12.8732 18.845C12.3835 18.3886 12.8223 17.7666 13.4099 18.1221C20.1365 22.1569 28.4537 24.5843 37.0451 24.5843C42.8392 24.5843 49.2132 23.3484 55.074 20.7837C55.9594 20.3959 56.6999 21.3814 55.8341 22.0438Z" fill="#FF9900"/>
<path fill-rule="evenodd" clip-rule="evenodd" d="M58.0089 19.479C57.3429 18.5985 53.5899 19.063 51.9053 19.2689C51.3921 19.3336 51.3137 18.8731 51.776 18.5419C54.7651 16.3731 59.67 16.9991 60.242 17.7261C60.814 18.4571 60.0931 23.5259 57.2842 25.9452C56.8532 26.3168 56.4419 26.1189 56.6339 25.6261C57.2646 24.0025 58.6789 20.3635 58.0089 19.479Z" fill="#FF9900"/>
<path fill-rule="evenodd" clip-rule="evenodd" d="M52.022 3.23054V1.12224C52.022 0.803172 52.2571 0.589111 52.5392 0.589111H61.6947C61.9885 0.589111 62.2236 0.807211 62.2236 1.12224V2.92762C62.2197 3.23054 61.9728 3.62635 61.5341 4.25237L56.7898 11.2356C58.5527 11.1912 60.4136 11.4618 62.012 12.3907C62.3724 12.6007 62.4704 12.9077 62.4978 13.2106V15.4603C62.4978 15.7672 62.1687 16.1267 61.824 15.9409C59.0072 14.4182 55.2658 14.2526 52.1513 15.957C51.834 16.1348 51.501 15.7793 51.501 15.4724V13.3358C51.501 12.9925 51.5049 12.4069 51.8379 11.8859L57.3343 3.75963H52.5509C52.2571 3.75963 52.022 3.54557 52.022 3.23054Z" fill="black"/>
<path fill-rule="evenodd" clip-rule="evenodd" d="M18.6248 16.3852H15.8393C15.5729 16.3651 15.3614 16.1591 15.3418 15.8965V1.15869C15.3418 0.863854 15.5808 0.629598 15.8785 0.629598H18.4759C18.7462 0.641706 18.9617 0.855774 18.9813 1.12234V3.04889H19.0322C19.71 1.18696 20.9832 0.318604 22.6991 0.318604C24.4425 0.318604 25.5316 1.18696 26.3151 3.04889C26.9889 1.18696 28.5207 0.318604 30.1622 0.318604C31.3297 0.318604 32.6068 0.815385 33.3865 1.93011C34.2679 3.17005 34.0877 4.97139 34.0877 6.55059L34.0838 15.8521C34.0838 16.147 33.8448 16.3852 33.5471 16.3852H30.7656C30.4874 16.3651 30.2641 16.1348 30.2641 15.8521V8.04093C30.2641 7.41895 30.3189 5.86802 30.1857 5.27834C29.9781 4.28882 29.3552 4.01013 28.5482 4.01013C27.8743 4.01013 27.1692 4.47461 26.8832 5.21776C26.5972 5.96091 26.6246 7.20488 26.6246 8.04093V15.8521C26.6246 16.147 26.3856 16.3852 26.0879 16.3852H23.3064C23.0243 16.3651 22.8049 16.1348 22.8049 15.8521L22.801 8.04093C22.801 6.39711 23.0635 3.97782 21.0851 3.97782C19.0831 3.97782 19.1615 6.33653 19.1615 8.04093V15.8521C19.1615 16.147 18.9225 16.3852 18.6248 16.3852" fill="black"/>
<path fill-rule="evenodd" clip-rule="evenodd" d="M70.1061 0.318604C74.2393 0.318604 76.4762 3.97783 76.4762 8.63061C76.4762 13.1259 74.0042 16.6922 70.1061 16.6922C66.0474 16.6922 63.8379 13.033 63.8379 8.4731C63.8379 3.88493 66.0749 0.318604 70.1061 0.318604ZM70.1296 3.32757C68.0768 3.32757 67.9475 6.21132 67.9475 8.00863C67.9475 9.80997 67.9201 13.655 70.1061 13.655C72.2648 13.655 72.3666 10.5531 72.3666 8.66292C72.3666 7.41895 72.3157 5.93264 71.9513 4.75329C71.6379 3.72742 71.015 3.32757 70.1296 3.32757Z" fill="black"/>
<path fill-rule="evenodd" clip-rule="evenodd" d="M81.8357 16.3852H79.062C78.7839 16.3651 78.5606 16.1348 78.5606 15.8521L78.5566 1.11022C78.5801 0.839618 78.8113 0.629598 79.0934 0.629598H81.6751C81.918 0.641706 82.1178 0.811347 82.1726 1.04156V3.29525H82.2236C83.0032 1.27986 84.0962 0.318604 86.0197 0.318604C87.2695 0.318604 88.4879 0.783075 89.2714 2.05532C90.0001 3.23467 90.0001 5.21776 90.0001 6.64348V15.9208C89.9687 16.1793 89.7376 16.3852 89.4634 16.3852H86.6701C86.4154 16.3651 86.2039 16.1712 86.1765 15.9208V7.91573C86.1765 6.30422 86.3567 3.94551 84.4331 3.94551C83.7553 3.94551 83.1324 4.41402 82.8229 5.12486C82.4312 6.02554 82.3803 6.92217 82.3803 7.91573V15.8521C82.3763 16.147 82.1334 16.3852 81.8357 16.3852" fill="black"/>
<path fill-rule="evenodd" clip-rule="evenodd" d="M44.7241 9.3455C44.7241 10.4643 44.7515 11.3972 44.203 12.3908C43.7603 13.1986 43.0552 13.6954 42.2755 13.6954C41.206 13.6954 40.5792 12.8553 40.5792 11.6153C40.5792 9.16779 42.7065 8.72351 44.7241 8.72351V9.3455ZM47.533 16.3449C47.3489 16.5145 47.0825 16.5266 46.8749 16.4135C45.9503 15.6219 45.7818 15.2544 45.2765 14.4991C43.7486 16.1066 42.6634 16.5872 40.685 16.5872C38.3383 16.5872 36.5166 15.0969 36.5166 12.1121C36.5166 9.7817 37.7389 8.19442 39.4862 7.41895C40.9984 6.73234 43.11 6.61118 44.7241 6.42135V6.04978C44.7241 5.3672 44.775 4.55943 44.3832 3.96975C44.0463 3.44066 43.396 3.22256 42.8201 3.22256C41.7584 3.22256 40.8143 3.78396 40.5831 4.94716C40.5361 5.20565 40.352 5.4601 40.0973 5.47222L37.3981 5.17334C37.1708 5.12083 36.9162 4.931 36.9828 4.57155C37.6018 1.19505 40.5635 0.177246 43.2119 0.177246C44.5674 0.177246 46.3381 0.548824 47.4077 1.60701C48.7632 2.91157 48.6339 4.65232 48.6339 6.54656V11.0216C48.6339 12.3666 49.1745 12.9563 49.6838 13.6833C49.8601 13.9417 49.8993 14.2527 49.672 14.4466C49.104 14.9353 48.0932 15.8441 47.5369 16.353L47.533 16.3449" fill="black"/>
<path fill-rule="evenodd" clip-rule="evenodd" d="M8.20746 9.34574C8.20746 10.4645 8.23488 11.3975 7.68642 12.3911C7.24372 13.1988 6.54246 13.6956 5.75893 13.6956C4.68942 13.6956 4.06651 12.8555 4.06651 11.6156C4.06651 9.16803 6.19379 8.72375 8.20746 8.72375V9.34574ZM11.0164 16.3451C10.8323 16.5147 10.5659 16.5269 10.3582 16.4138C9.43368 15.6222 9.26914 15.2546 8.75985 14.4993C7.23197 16.1068 6.1507 16.5874 4.16837 16.5874C1.82562 16.5874 0 15.0971 0 12.1124C0 9.78194 1.22622 8.19466 2.96957 7.4192C4.48178 6.73259 6.59339 6.61142 8.20746 6.4216V6.05002C8.20746 5.36745 8.25839 4.55967 7.87054 3.97C7.52971 3.4409 6.87938 3.2228 6.3074 3.2228C5.24572 3.2228 4.29765 3.78421 4.06651 4.9474C4.0195 5.20589 3.83537 5.46034 3.58464 5.47246L0.88147 5.17358C0.654246 5.12108 0.403516 4.93125 0.466199 4.57179C1.0891 1.19529 4.04692 0.17749 6.69525 0.17749C8.05075 0.17749 9.82153 0.549068 10.891 1.60725C12.2465 2.91181 12.1173 4.65257 12.1173 6.5468V11.0219C12.1173 12.3668 12.6579 12.9565 13.1672 13.6835C13.3474 13.942 13.3866 14.253 13.1594 14.4468C12.5913 14.9355 11.5806 15.8443 11.0242 16.3532L11.0164 16.3451" fill="black"/>
</g>
<defs>
<clipPath id="clip0_32_841">
<rect width="90" height="27.9612" fill="white" transform="translate(0 0.177246)"/>
</clipPath>
</defs>
</svg>
