<svg width="157" height="98" viewBox="0 0 157 98" fill="none" xmlns="http://www.w3.org/2000/svg">
<path d="M151.893 24.005C144.107 22.66 136.186 25.0415 128.839 27.8183C128.791 27.8353 128.74 27.8421 128.688 27.8383C128.637 27.8345 128.588 27.8201 128.542 27.7961C128.497 27.7721 128.457 27.739 128.425 27.6989C128.393 27.6587 128.37 27.6124 128.357 27.5628C128.32 27.4164 128.331 27.2619 128.388 27.1222C128.445 26.9824 128.546 26.8648 128.675 26.7867C134.126 23.4643 140.194 21.2845 146.513 20.3796C114.931 10.868 71.9669 8.20683 50.2294 37.735C59.7218 39.2246 69.4793 42.31 76.3925 49.3775C80.5345 53.3452 83.3725 58.4781 84.5302 64.0957C87.4228 77.7968 77.3519 91.9173 63.352 91.9414C37.9457 91.9847 29.244 60.4945 40.8768 39.2439C27.4361 37.7446 13.7736 38.0242 0.313623 39.3452C0.240877 39.3534 0.167813 39.3327 0.110123 39.2876C0.0524334 39.2426 0.0147187 39.1767 0.00508293 39.1041C-0.00381162 39.0452 -0.00101207 38.9852 0.0133181 38.9274C0.0276483 38.8696 0.0532285 38.8152 0.088599 38.7673C0.123969 38.7193 0.168436 38.6789 0.219455 38.6482C0.270475 38.6175 0.327045 38.5971 0.385936 38.5883C14.2027 36.5201 28.2219 35.6668 42.1833 36.7563C62.6722 1.59737 112.217 2.23371 144.748 17.7619C139.754 15.3755 137.069 7.26676 137.165 3.0099C137.157 2.87231 137.203 2.73697 137.293 2.63258C137.383 2.5282 137.51 2.46294 137.647 2.45065C137.773 2.44925 137.897 2.48217 138.006 2.54587C138.115 2.60957 138.204 2.70163 138.264 2.81222C141.981 9.60007 146.966 14.5994 153.971 19.8735C156.844 22.038 157.876 25.0367 151.893 24.005ZM45.0469 47.6805C38.235 63.7776 47.2935 87.8918 64.1715 86.5709C73.9531 85.8092 81.2858 77.0206 80.4469 67.2438C79.9487 61.5636 77.4952 56.2322 73.5048 52.1591C67.04 45.2315 57.6199 42.1413 48.4891 40.3913C47.1122 42.7059 45.9596 45.1467 45.0469 47.6805Z" fill="#FFD738"/>
<path d="M48.3738 96.3862C46.7126 95.376 44.9655 94.5146 43.1527 93.8118C43.0735 93.7812 42.9863 93.7776 42.9047 93.8016C42.8232 93.8256 42.7518 93.8758 42.7018 93.9446C42.6518 94.0133 42.6258 94.0966 42.6281 94.1816C42.6303 94.2666 42.6605 94.3484 42.714 94.4145C43.3949 95.2081 44.2294 95.8557 45.1674 96.318C46.1053 96.7804 47.1272 97.0479 48.1713 97.1045C48.2566 97.1062 48.3401 97.0795 48.4086 97.0287C48.4771 96.9778 48.5268 96.9057 48.55 96.8236C48.5731 96.7415 48.5684 96.654 48.5365 96.5748C48.5046 96.4957 48.4474 96.4294 48.3738 96.3862Z" fill="#FFD738"/>
<path d="M38.9245 90.6927C32.6574 83.4179 28.0196 74.0557 27.311 63.5798C27.311 63.3629 26.988 63.3822 26.9349 63.5798C24.3027 73.887 30.2565 85.7561 38.6835 90.9626C38.7203 90.9806 38.762 90.9861 38.8022 90.9782C38.8424 90.9703 38.8789 90.9495 38.9062 90.9189C38.9335 90.8883 38.9501 90.8497 38.9534 90.8089C38.9567 90.768 38.9466 90.7272 38.9245 90.6927Z" fill="#FFD738"/>
<path d="M100.96 1.2452C105.161 0.863139 109.395 1.17258 113.495 2.16119C113.523 2.16511 113.552 2.15906 113.577 2.14406C113.602 2.12907 113.62 2.10604 113.63 2.07886C113.64 2.05168 113.64 2.02201 113.63 1.99485C113.62 1.9677 113.601 1.9447 113.577 1.92977C109.86 -0.30714 104.928 -0.577108 100.898 0.999332C100.872 1.01281 100.851 1.03479 100.839 1.06165C100.827 1.08852 100.824 1.11867 100.831 1.14722C100.838 1.17577 100.855 1.20101 100.879 1.21881C100.902 1.23661 100.931 1.24591 100.96 1.2452Z" fill="#FFD738"/>
</svg>
