<svg width="1440" height="548" viewBox="0 0 1440 548" fill="none" xmlns="http://www.w3.org/2000/svg">
<path d="M1400.2 305.656C1381.28 201.58 1147.27 125.383 969.153 118.579C763.896 110.751 682.47 196.982 527.565 162.561C386.205 131.18 381.8 43.2789 277.671 24.7094C181.974 7.64653 27.2175 53.6121 -235.785 304.078" stroke="white" stroke-opacity="0.12" stroke-width="5" stroke-miterlimit="10"/>
<path d="M-224.345 316.23C35.4339 69.4106 190.371 21.405 287.54 36.184C359.554 47.1978 385.505 90.9666 440.611 126.768C468.091 145.156 502.279 159.28 540.103 167.87C663.996 196.068 740.725 149.661 875.188 134.384C909.465 130.427 944.569 128.979 979.779 130.07C1158.69 135.254 1390.46 202.622 1413.22 303.114" stroke="white" stroke-opacity="0.12" stroke-width="5" stroke-miterlimit="10"/>
<path d="M-212.873 328.349C43.6822 85.1939 198.711 35.1621 297.149 47.6657C369.508 56.8607 397.208 98.6788 452.507 132.797C480.692 150.601 514.841 164.409 552.352 173.167C674.427 201.656 750.901 160.189 885.784 145.929C920.064 142.261 955.037 140.8 990.144 141.569C1169.87 145.472 1399.38 203.653 1425.97 300.562" stroke="white" stroke-opacity="0.12" stroke-width="5" stroke-miterlimit="10"/>
<path d="M-201.431 340.429C51.8399 100.989 207.048 48.9532 306.872 59.1334C379.633 66.5478 408.966 106.374 464.544 138.831C493.373 156.038 527.458 169.536 564.627 178.464C685 207.249 760.96 170.693 896.406 157.473C930.707 154.048 965.59 152.557 1000.62 153.017C1181.15 155.443 1408.39 204.633 1438.81 297.959" stroke="white" stroke-opacity="0.12" stroke-width="5" stroke-miterlimit="10"/>
<path d="M-189.993 352.598C60.0568 116.77 215.326 62.7597 316.624 70.6205C389.698 76.2681 420.81 114.11 476.642 144.85C506.134 161.47 540.217 174.674 577.106 183.77C695.777 212.852 771.308 181.227 907.378 169.034C941.628 165.898 976.344 164.396 1011.22 164.543C1192.57 165.492 1417.54 205.709 1451.82 295.453" stroke="white" stroke-opacity="0.12" stroke-width="5" stroke-miterlimit="10"/>
<path d="M-178.669 364.727C68.245 132.55 223.769 74.8463 326.377 82.09C399.621 87.211 432.661 121.721 488.68 150.885C518.823 166.889 552.903 179.798 589.498 189.073C706.467 218.451 781.511 191.755 918 180.596C952.228 177.703 986.827 176.175 1021.58 176.022C1203.76 175.424 1426.46 206.721 1464.57 292.899" stroke="white" stroke-opacity="0.12" stroke-width="5" stroke-miterlimit="10"/>
<path d="M-167.082 376.869C76.4627 148.349 231.877 90.4982 336.106 93.47C409.711 95.7933 444.565 129.442 500.748 156.939C531.507 172.321 565.587 184.942 601.891 194.394C717.158 224.069 791.803 202.288 928.739 192.165C962.946 189.537 997.433 187.994 1032.06 187.543C1215.06 185.469 1435.5 207.721 1477.44 290.37" stroke="white" stroke-opacity="0.12" stroke-width="5" stroke-miterlimit="10"/>
<path d="M-155.642 389.003C84.5926 164.126 240.128 104.268 345.854 105.046C419.717 105.529 456.534 137.005 512.817 162.957C544.166 177.703 578.262 190.03 614.285 199.643C727.821 229.631 802.065 212.801 939.48 203.661C971.453 201.557 1005.57 199.693 1042.54 198.975C1226.4 195.372 1444.53 208.774 1490.3 287.804" stroke="white" stroke-opacity="0.12" stroke-width="5" stroke-miterlimit="10"/>
<path d="M-144.202 401.137C92.8669 179.927 248.37 118.233 355.58 116.478C429.723 115.282 468.531 144.587 524.944 168.96C556.886 183.062 591.017 195.12 626.765 204.932C738.599 235.216 812.387 223.282 950.307 215.215C982.415 213.331 1016.44 211.499 1053.14 210.465C1237.59 205.34 1453.57 209.81 1503.17 285.238" stroke="white" stroke-opacity="0.12" stroke-width="5" stroke-miterlimit="10"/>
<path d="M-132.731 413.255C101.085 195.709 256.614 132.163 365.331 128.002C439.724 125.143 480.673 152.212 536.924 175.01C569.417 188.459 603.577 200.253 639.041 210.266C749.201 240.847 822.561 233.845 960.961 226.726C993.06 225.055 1027.12 223.224 1063.54 221.893C1249.02 215.176 1462.61 210.739 1516.04 282.602" stroke="white" stroke-opacity="0.12" stroke-width="5" stroke-miterlimit="10"/>
<path d="M-121.29 425.389C109.274 211.488 264.857 146.129 374.998 139.467C449.641 134.963 492.614 159.756 548.934 181.061C581.972 193.83 616.186 205.354 651.376 215.565C759.805 246.442 832.737 244.354 971.639 238.363C1003.87 236.947 1037.84 235.094 1073.96 233.482C1260.27 225.164 1471.55 211.859 1528.88 280.141" stroke="white" stroke-opacity="0.12" stroke-width="5" stroke-miterlimit="10"/>
<path d="M-109.851 437.523C117.489 227.286 273.155 160.096 384.807 150.939C459.728 144.809 504.757 167.291 561.029 187.098C593.377 198.476 626.505 209.978 663.824 220.871C770.553 252.026 843.055 254.887 982.434 249.915C1014.74 248.735 1048.66 246.861 1084.55 244.972C1271.69 235.054 1480.71 212.881 1541.83 277.597" stroke="white" stroke-opacity="0.12" stroke-width="5" stroke-miterlimit="10"/>
<path d="M-98.4097 449.658C125.704 243.139 281.251 174.091 394.532 162.426C469.732 154.652 516.905 174.792 573.098 193.134C606.257 203.961 639.486 215.184 676.218 226.174C781.242 257.679 853.29 265.399 993.175 261.466C1025.56 260.538 1059.44 258.646 1094.97 256.454C1282.92 244.898 1489.68 213.897 1554.64 275.046" stroke="white" stroke-opacity="0.12" stroke-width="5" stroke-miterlimit="10"/>
<path d="M-87.0261 461.789C133.896 258.865 289.666 188.118 404.256 173.911C479.733 164.547 529.054 182.274 585.167 199.188C619.167 209.43 652.466 220.388 688.495 231.489C791.848 263.238 863.407 275.941 1003.91 273.051C1036.41 272.342 1070.2 270.428 1105.45 267.974C1294.23 254.747 1498.72 214.914 1567.51 272.498" stroke="white" stroke-opacity="0.12" stroke-width="5" stroke-miterlimit="10"/>
<path d="M-75.4975 473.91C142.114 274.646 297.876 202.17 414.01 185.381C489.792 174.41 541.233 189.704 597.206 205.205C632.05 214.844 665.475 225.577 701.004 236.779C802.598 268.822 873.787 286.442 1014.65 284.583C1048.63 283.919 1082.44 282.185 1115.97 279.39C1305.52 264.576 1507.84 215.971 1580.37 269.932" stroke="white" stroke-opacity="0.12" stroke-width="5" stroke-miterlimit="10"/>
<path d="M-64.0572 486.045C150.331 290.445 306.319 216.181 423.647 196.846C499.734 184.286 553.326 197.113 609.303 211.243C644.99 220.261 678.484 230.765 713.397 242.082C813.317 274.423 884.048 296.973 1025.34 296.131C1059.27 295.735 1093.02 293.996 1126.39 290.926C1316.8 274.3 1516.79 216.985 1593.27 267.315" stroke="white" stroke-opacity="0.12" stroke-width="5" stroke-miterlimit="10"/>
<path d="M-52.6164 498.179C158.519 306.225 314.758 230.316 433.487 208.319C509.821 194.203 565.595 204.494 621.343 217.26C657.874 225.64 691.434 235.969 725.76 247.384C823.95 280.02 894.282 307.485 1036.13 307.684C1070.02 307.532 1103.72 305.77 1136.92 302.413C1328.06 284.146 1525.83 218.021 1606.14 264.838" stroke="white" stroke-opacity="0.12" stroke-width="5" stroke-miterlimit="10"/>
<path d="M-41.147 510.314C166.733 322.095 322.966 244.387 443.21 219.805C519.936 204.104 577.778 211.835 633.382 223.294C670.875 231.006 704.414 241.156 738.153 252.686C834.642 285.583 904.515 318.015 1046.87 319.252C1080.72 319.333 1114.36 317.547 1147.4 313.916C1339.32 293.921 1534.87 219.038 1619 262.29" stroke="white" stroke-opacity="0.12" stroke-width="5" stroke-miterlimit="10"/>
<path d="M-29.706 522.449C174.809 337.798 331.347 258.501 452.961 231.346C530.02 214.093 589.929 219.229 645.445 229.437C683.695 236.524 717.447 246.47 750.541 258.096C845.326 291.325 914.772 328.653 1057.61 330.874C1091.4 331.188 1125 329.378 1157.88 325.472C1350.57 303.731 1544.04 220.187 1631.87 259.814" stroke="white" stroke-opacity="0.12" stroke-width="5" stroke-miterlimit="10"/>
<path d="M-18.2678 534.583C183.139 353.602 339.754 272.616 462.685 242.761C540.135 223.94 602.087 226.444 657.516 235.366C696.616 241.673 730.4 251.567 762.934 263.327C855.988 296.851 925.007 339.093 1068.35 342.388C1102.1 342.945 1135.66 341.11 1168.36 336.921C1361.8 313.38 1552.94 221.091 1644.74 257.194" stroke="white" stroke-opacity="0.12" stroke-width="5" stroke-miterlimit="10"/>
<path d="M-6.7959 546.701C191.358 369.383 348.162 286.821 472.324 254.225C550.135 233.871 614.1 233.707 669.44 241.396C709.39 246.94 743.265 256.749 775.185 268.57C866.566 302.41 935.155 349.583 1078.97 353.897C1112.68 354.678 1146.21 352.82 1178.76 348.367C1372.81 322.877 1561.86 222.121 1657.55 254.626" stroke="white" stroke-opacity="0.12" stroke-width="5" stroke-miterlimit="10"/>
<path d="M4.61516 558.834C320.925 276.976 537.536 230.536 681.624 247.437C838.916 265.883 895.053 358.227 1089.83 365.47C1318.31 373.948 1554.14 218.243 1670.47 252.08" stroke="white" stroke-opacity="0.12" stroke-width="5" stroke-miterlimit="10"/>
</svg>
