<svg width="88" height="95" viewBox="0 0 88 95" fill="none" xmlns="http://www.w3.org/2000/svg">
<path d="M24.1061 80.1704L25.3532 77.6634C25.7943 77.5924 26.2273 77.5901 26.6523 77.6563C27.0758 77.7255 27.5039 77.8677 27.9367 78.083C28.456 78.3413 28.886 78.6557 29.2266 79.0262C29.5643 79.3952 29.8088 79.7979 29.9603 80.2344C30.1117 80.6708 30.1678 81.1306 30.1286 81.6137C30.0863 82.0953 29.945 82.5778 29.7045 83.0613C29.4625 83.5478 29.1652 83.9546 28.8125 84.2818C28.4555 84.6105 28.0624 84.8468 27.6334 84.9908C27.2028 85.1378 26.7453 85.1894 26.2607 85.1457C25.7717 85.1035 25.2735 84.9562 24.7661 84.7038C24.5095 84.5761 24.2818 84.4387 24.0833 84.2915C23.8817 84.1428 23.7048 83.9859 23.5524 83.8208C23.4 83.6556 23.2699 83.483 23.1622 83.3028C23.05 83.1242 22.9565 82.938 22.8816 82.7444L23.3684 82.4504C23.4443 82.4026 23.5211 82.3868 23.5986 82.403C23.6762 82.4193 23.7426 82.4728 23.798 82.5636C23.8533 82.647 23.9139 82.7423 23.9797 82.8495C24.0425 82.9552 24.127 83.066 24.233 83.1821C24.3361 83.2967 24.4653 83.4149 24.6206 83.5368C24.7759 83.6588 24.9714 83.7784 25.2072 83.8956C25.5594 84.0708 25.9062 84.1707 26.2476 84.1954C26.5875 84.223 26.9109 84.1791 27.2178 84.0637C27.5246 83.9483 27.8075 83.7651 28.0664 83.5141C28.3237 83.2661 28.546 82.9541 28.733 82.5781C28.929 82.1841 29.0482 81.8022 29.0907 81.4325C29.1317 81.0657 29.1034 80.7221 29.0058 80.4018C28.9038 80.083 28.7333 79.7934 28.4942 79.533C28.2522 79.2712 27.9476 79.0489 27.5805 78.8663C27.4373 78.7951 27.3007 78.7365 27.171 78.6905C27.0367 78.6461 26.9055 78.6106 26.7772 78.584C26.6489 78.5574 26.5214 78.5405 26.3947 78.5333C26.265 78.5247 26.1346 78.5212 26.0034 78.523L25.3331 79.8705L26.2822 80.3426C26.3419 80.3722 26.3822 80.4146 26.4032 80.4698C26.4212 80.5234 26.4168 80.5771 26.3901 80.6308L26.1206 81.1725L24.1061 80.1704Z" fill="white"/>
<path d="M19.4354 73.0861L19.9976 72.4286L23.3965 75.3008L18.7623 80.785L15.3633 77.9128L15.9216 77.2521L18.5033 79.4337L19.9717 77.696L17.8941 75.9404L18.4331 75.3026L20.5106 77.0582L22.021 75.2709L19.4354 73.0861Z" fill="white"/>
<path d="M9.95611 69.9579L11.3272 71.7795L16.3528 67.997L16.9902 68.8439L11.9647 72.6265L13.3418 74.4561L12.6307 74.9913L9.24502 70.4931L9.95611 69.9579Z" fill="white"/>
<path d="M5.04339 57.4085C5.10714 57.4245 5.15697 57.4464 5.19288 57.4741C5.22879 57.5018 5.25471 57.5428 5.27065 57.5972C5.28753 57.6548 5.28117 57.7278 5.25156 57.8164C5.21875 57.9059 5.18678 58.016 5.15563 58.1467C5.12034 58.2752 5.09962 58.4237 5.09346 58.5922C5.08409 58.7617 5.11083 58.9536 5.17367 59.1679C5.23275 59.3694 5.31199 59.539 5.41138 59.6766C5.50664 59.8119 5.61566 59.9172 5.73843 59.9923C5.858 60.0684 5.98814 60.1154 6.12883 60.1332C6.26538 60.1487 6.40563 60.1354 6.54957 60.0932C6.7351 60.0388 6.87503 59.9474 6.96939 59.819C7.0628 59.6874 7.13018 59.5322 7.17153 59.3533C7.21288 59.1744 7.23693 58.9781 7.2437 58.7642C7.25047 58.5503 7.25902 58.3307 7.26937 58.1054C7.27652 57.881 7.29627 57.6581 7.32863 57.4367C7.36098 57.2153 7.42342 57.0077 7.51595 56.8138C7.60528 56.6209 7.7355 56.449 7.90662 56.2981C8.07361 56.1449 8.29944 56.0266 8.58412 55.9431C8.888 55.854 9.18816 55.8233 9.4846 55.851C9.7801 55.8756 10.0561 55.9579 10.3125 56.0981C10.569 56.2382 10.7975 56.437 10.998 56.6943C11.1943 56.9494 11.3465 57.2608 11.4543 57.6287C11.519 57.8494 11.5595 58.0703 11.5756 58.2913C11.595 58.5114 11.5935 58.7255 11.5711 58.9335C11.5456 59.1425 11.5023 59.3445 11.4414 59.5395C11.3763 59.7322 11.2938 59.9128 11.1938 60.081L10.6185 59.9318C10.5717 59.9143 10.5299 59.8901 10.493 59.8592C10.4553 59.8251 10.4289 59.7825 10.4139 59.7313C10.3942 59.6642 10.4068 59.5771 10.4519 59.4701C10.496 59.3599 10.5425 59.2282 10.5913 59.0749C10.6361 58.9194 10.6673 58.7417 10.6852 58.542C10.7021 58.339 10.6726 58.108 10.5966 57.8489C10.5347 57.6378 10.4522 57.457 10.349 57.3066C10.2427 57.1572 10.1219 57.0415 9.98676 56.9595C9.84744 56.8753 9.6953 56.8244 9.53034 56.8068C9.36539 56.7891 9.19334 56.8066 9.01422 56.8591C8.8127 56.9182 8.66157 57.0129 8.56082 57.1431C8.46007 57.2734 8.38902 57.428 8.34767 57.6068C8.30632 57.7857 8.28386 57.9816 8.2803 58.1945C8.27673 58.4075 8.27297 58.6257 8.26902 58.8492C8.26187 59.0736 8.24372 59.296 8.21456 59.5164C8.18541 59.7369 8.12456 59.944 8.03204 60.1379C7.93631 60.3327 7.79809 60.507 7.61737 60.6607C7.43346 60.8153 7.18796 60.9377 6.88089 61.0277C6.63459 61.0999 6.38222 61.1218 6.12378 61.0934C5.86534 61.0649 5.62143 60.9854 5.39204 60.8546C5.15852 60.7216 4.9496 60.5362 4.76526 60.2985C4.57773 60.0617 4.43332 59.7706 4.33203 59.4251C4.21855 59.0381 4.17682 58.6647 4.20685 58.3051C4.23274 57.9432 4.32567 57.6085 4.48563 57.3011L5.04339 57.4085Z" fill="white"/>
<path d="M3.66765 48.0187L3.82531 50.2932L10.1003 49.8583L10.1736 50.9158L3.89861 51.3507L4.05696 53.6352L3.16909 53.6968L2.77978 48.0802L3.66765 48.0187Z" fill="white"/>
<path d="M8.17058 40.7332L5.24979 41.3327C5.04988 41.3776 4.80062 41.4143 4.50203 41.443C4.63753 41.5024 4.76288 41.5618 4.8781 41.6213C4.99386 41.6774 5.09647 41.7315 5.18591 41.7833L7.75242 43.2791L8.17058 40.7332ZM11.1514 39.0896L11.0185 39.8987C11.0034 39.9908 10.9679 40.0627 10.9121 40.1143C10.8564 40.166 10.7901 40.199 10.7134 40.2134L8.96753 40.5702L8.45456 43.6933L9.99462 44.5898C10.0533 44.6231 10.1039 44.6753 10.1462 44.7464C10.1853 44.817 10.1976 44.8968 10.183 44.9856L10.0501 45.7947L3.42854 41.8088L3.60278 40.748L11.1514 39.0896Z" fill="white"/>
<path d="M9.34774 33.7059C9.45287 33.4536 9.5144 33.2192 9.53235 33.0028C9.55159 32.7833 9.53274 32.5859 9.47582 32.4105C9.41582 32.2338 9.32236 32.0811 9.19544 31.9524C9.06544 31.8224 8.90659 31.7183 8.7189 31.6401C8.33736 31.4811 7.99711 31.4874 7.69813 31.6589C7.40044 31.8274 7.1471 32.1624 6.93813 32.6639L6.55158 33.5916L8.97465 34.6013L9.34774 33.7059ZM14.0701 32.0444L13.7047 32.9213C13.6316 33.0967 13.5091 33.1955 13.3374 33.2178L10.3562 33.8986C10.2575 33.9188 10.1799 33.9533 10.1235 34.002C10.064 34.0495 10.0086 34.1347 9.95735 34.2578L9.69004 34.8993L12.4085 36.032L11.9989 37.0151L5.37119 34.2535L6.16736 32.3428C6.34557 31.9151 6.54339 31.566 6.76083 31.2955C6.97647 31.0206 7.20749 30.8171 7.4539 30.6851C7.69852 30.5487 7.95455 30.4802 8.22198 30.4797C8.4907 30.4761 8.7666 30.5333 9.04967 30.6513C9.28044 30.7474 9.48262 30.8732 9.65621 31.0286C9.8298 31.184 9.96929 31.3649 10.0747 31.5713C10.1783 31.7733 10.2475 31.9972 10.2824 32.2428C10.3172 32.4884 10.3135 32.7487 10.2712 33.0236C10.3963 32.9313 10.5436 32.8681 10.7131 32.834L14.0701 32.0444Z" fill="white"/>
<path d="M13.033 22.5897L11.7105 24.4469L16.8342 28.0954L16.2193 28.9589L11.0956 25.3103L9.76729 27.1757L9.04232 26.6595L12.308 22.0734L13.033 22.5897Z" fill="white"/>
<path d="M22.8116 20.7326L23.3835 21.3817L20.0615 24.3426L15.2841 18.9827L18.606 16.0218L19.1816 16.6675L16.6584 18.9165L18.1721 20.6148L20.2026 18.8049L20.7582 19.4283L18.7277 21.2381L20.2847 22.9849L22.8116 20.7326Z" fill="white"/>
<path d="M29.7866 13.5462C30.0382 14.0202 30.1906 14.4922 30.2438 14.9621C30.3 15.4305 30.2639 15.8779 30.1356 16.3045C30.0058 16.7282 29.7886 17.119 29.4842 17.4768C29.1798 17.8346 28.792 18.1386 28.321 18.3886L25.9361 19.6546L22.5697 13.3127L24.9545 12.0467C25.4256 11.7967 25.8946 11.6458 26.3616 11.5942C26.8286 11.5426 27.2747 11.5832 27.6999 11.7159C28.1236 11.8458 28.5144 12.0667 28.8724 12.3785C29.2318 12.6859 29.5366 13.0751 29.7866 13.5462ZM28.8238 14.0573C28.6238 13.6804 28.3933 13.3706 28.1324 13.128C27.87 12.8824 27.5883 12.7073 27.2876 12.6028C26.9882 12.4938 26.6741 12.4567 26.3454 12.4915C26.0197 12.5248 25.6905 12.6298 25.3578 12.8064L23.918 13.5706L26.478 18.3933L27.9177 17.629C28.2504 17.4524 28.5218 17.2385 28.7319 16.9874C28.945 16.7347 29.091 16.4552 29.17 16.1491C29.2505 15.8385 29.2633 15.5072 29.2085 15.1551C29.1537 14.803 29.0255 14.4371 28.8238 14.0573Z" fill="white"/>
<path d="M38.5993 13.2622C38.5809 13.1355 38.587 13.0125 38.6176 12.8931C38.6482 12.7737 38.6972 12.666 38.7648 12.57C38.837 12.4733 38.926 12.3933 39.0318 12.3301C39.1369 12.2621 39.2551 12.2187 39.3865 12.1996C39.5132 12.1812 39.6365 12.1897 39.7566 12.225C39.876 12.2556 39.9841 12.307 40.0808 12.3792C40.1775 12.4514 40.2574 12.5404 40.3207 12.6462C40.3886 12.7513 40.4318 12.8672 40.4501 12.9938C40.4692 13.1252 40.4611 13.2509 40.4258 13.371C40.3952 13.4904 40.3438 13.5985 40.2716 13.6952C40.1994 13.7919 40.1104 13.8718 40.0046 13.9351C39.8988 13.9983 39.7826 14.0391 39.6559 14.0575C39.5245 14.0765 39.3991 14.0708 39.2797 14.0402C39.1603 14.0096 39.0523 13.9582 38.9556 13.886C38.8636 13.8131 38.786 13.7238 38.7227 13.618C38.6595 13.5122 38.6183 13.3936 38.5993 13.2622Z" fill="white"/>
<path d="M54.6844 12.5566L54.1281 15.3008C53.7204 15.4834 53.3027 15.5977 52.875 15.6436C52.4481 15.6863 51.9977 15.6597 51.524 15.5636C50.9556 15.4484 50.4589 15.2559 50.034 14.9861C49.6124 14.717 49.272 14.3912 49.0129 14.0088C48.7537 13.6263 48.5806 13.1967 48.4936 12.7199C48.4098 12.2438 48.4216 11.7411 48.5289 11.2119C48.6368 10.6793 48.8188 10.2095 49.0748 9.80221C49.3347 9.39235 49.6533 9.0624 50.0305 8.81235C50.4084 8.55904 50.837 8.39084 51.3164 8.30776C51.7997 8.22207 52.3191 8.23552 52.8744 8.3481C53.1554 8.40505 53.4108 8.47893 53.6407 8.56974C53.8738 8.66122 54.0853 8.76702 54.2753 8.88714C54.4652 9.00727 54.6355 9.14042 54.7861 9.28659C54.9406 9.43016 55.0792 9.58578 55.2016 9.75345L54.8073 10.1633C54.7464 10.2292 54.6763 10.2643 54.5972 10.2686C54.5181 10.273 54.4401 10.2385 54.3631 10.1651C54.2881 10.0989 54.205 10.0225 54.1137 9.93595C54.0256 9.85008 53.9154 9.76481 53.7829 9.68013C53.6537 9.59612 53.4983 9.51531 53.3168 9.4377C53.1352 9.36009 52.9154 9.29512 52.6574 9.24281C52.2719 9.16466 51.911 9.15784 51.5748 9.22233C51.2393 9.28356 50.9383 9.4096 50.6717 9.60045C50.4052 9.7913 50.1793 10.0414 49.9941 10.3508C49.8097 10.6569 49.6757 11.0158 49.5922 11.4274C49.5048 11.8586 49.4884 12.2583 49.543 12.6265C49.5983 12.9915 49.7145 13.316 49.8915 13.6002C50.0725 13.8818 50.3122 14.1174 50.6104 14.3071C50.912 14.4975 51.2636 14.6334 51.6655 14.7148C51.8223 14.7466 51.9693 14.7679 52.1066 14.7787C52.2477 14.7869 52.3837 14.7873 52.5145 14.7798C52.6452 14.7723 52.7728 14.7556 52.897 14.7298C53.0246 14.7046 53.1515 14.6742 53.2777 14.6386L53.5767 13.1636L52.5379 12.953C52.4725 12.9398 52.4226 12.9093 52.3881 12.8614C52.3568 12.8143 52.3472 12.7613 52.3591 12.7025L52.4793 12.1096L54.6844 12.5566Z" fill="white"/>
<path d="M61.0283 18.1919L60.6553 18.9724L56.6292 17.077L59.6874 10.5809L63.7136 12.4763L63.3452 13.2589L60.2871 11.8192L59.3181 13.8775L61.779 15.0361L61.4233 15.7916L58.9624 14.633L57.9657 16.7501L61.0283 18.1919Z" fill="white"/>
<path d="M70.9931 18.7623L69.1975 17.3572L65.3212 22.3108L64.4864 21.6576L68.3628 16.704L66.5593 15.2927L67.1078 14.5918L71.5416 18.0614L70.9931 18.7623Z" fill="white"/>
<path d="M78.9855 29.6139C78.9198 29.6149 78.866 29.6067 78.8241 29.5892C78.7823 29.5718 78.7466 29.5388 78.7172 29.4904C78.686 29.4392 78.6732 29.367 78.6789 29.2737C78.6875 29.1788 78.6899 29.0641 78.6862 28.9298C78.687 28.7966 78.6686 28.6478 78.631 28.4834C78.5962 28.3173 78.5208 28.1388 78.4046 27.9481C78.2954 27.7687 78.1751 27.6254 78.0435 27.5182C77.9164 27.4121 77.7839 27.3386 77.6459 27.2978C77.5107 27.2552 77.3728 27.2435 77.2323 27.2627C77.0964 27.283 76.9644 27.3321 76.8362 27.4101C76.6711 27.5106 76.5596 27.6351 76.5016 27.7835C76.4454 27.9348 76.4205 28.1022 76.4268 28.2857C76.4331 28.4691 76.4607 28.665 76.5094 28.8734C76.5582 29.0817 76.6067 29.2961 76.655 29.5165C76.7062 29.7351 76.7447 29.9555 76.7707 30.1777C76.7967 30.3999 76.7901 30.6166 76.7509 30.8278C76.7145 31.0373 76.6331 31.237 76.5069 31.4271C76.3852 31.6182 76.1976 31.7909 75.9442 31.9452C75.6737 32.1098 75.3917 32.2171 75.0982 32.267C74.8064 32.3197 74.5185 32.3116 74.2345 32.2425C73.9505 32.1734 73.6784 32.0405 73.4182 31.8438C73.1625 31.6482 72.9351 31.3867 72.7358 31.0592C72.6162 30.8628 72.52 30.6599 72.4472 30.4505C72.3715 30.2429 72.3176 30.0358 72.2854 29.829C72.2561 29.6205 72.2456 29.4142 72.254 29.2101C72.267 29.0071 72.3001 28.8113 72.3532 28.6229L72.9474 28.6183C72.9972 28.6231 73.0439 28.6357 73.0874 28.656C73.1327 28.6791 73.1693 28.7135 73.197 28.759C73.2334 28.8188 73.2437 28.9062 73.2278 29.0212C73.2137 29.1391 73.2029 29.2784 73.1953 29.439C73.1924 29.6008 73.2081 29.7805 73.2425 29.9781C73.2787 30.1785 73.3669 30.3941 73.5073 30.6247C73.6217 30.8126 73.7482 30.9659 73.8867 31.0845C74.0281 31.2013 74.1746 31.2819 74.3264 31.3261C74.4828 31.3714 74.6429 31.3812 74.8068 31.3556C74.9707 31.33 75.1324 31.2686 75.2918 31.1716C75.4712 31.0624 75.5927 30.9318 75.6564 30.7799C75.72 30.628 75.7487 30.4603 75.7423 30.2769C75.736 30.0934 75.7071 29.8984 75.6554 29.6918C75.6038 29.4851 75.551 29.2734 75.497 29.0565C75.4459 28.8379 75.4059 28.6183 75.3771 28.3978C75.3482 28.1774 75.3534 27.9615 75.3927 27.7503C75.4347 27.5374 75.5232 27.3333 75.658 27.1381C75.7957 26.9411 76.0012 26.7594 76.2745 26.5931C76.4938 26.4596 76.7319 26.3732 76.9889 26.3338C77.2459 26.2944 77.5021 26.3082 77.7575 26.3752C78.0174 26.4433 78.2672 26.5683 78.5068 26.7503C78.7492 26.9306 78.9639 27.1744 79.1511 27.482C79.3608 27.8265 79.4977 28.1763 79.5617 28.5315C79.6303 28.8878 79.6271 29.2351 79.5521 29.5734L78.9855 29.6139Z" fill="white"/>
<path d="M82.7415 38.3287L82.001 36.1723L76.052 38.2153L75.7077 37.2128L81.6567 35.1698L80.9129 33.004L81.7547 32.7149L83.5833 38.0397L82.7415 38.3287Z" fill="white"/>
<path d="M80.2759 46.531L82.9422 45.1964C83.1238 45.1014 83.355 45.0014 83.636 44.8965C83.4898 44.8742 83.3533 44.8492 83.2267 44.8216C83.1003 44.7972 82.9872 44.7716 82.8874 44.7446L80.0214 43.9635L80.2759 46.531ZM77.8215 48.8895L77.7407 48.0735C77.7315 47.9807 77.7471 47.9021 77.7876 47.8378C77.8282 47.7734 77.8836 47.7244 77.9539 47.6906L79.5482 46.8945L79.236 43.7449L77.5165 43.2773C77.4512 43.2603 77.3888 43.2229 77.3295 43.1652C77.2735 43.1071 77.2411 43.0332 77.2322 42.9437L77.1513 42.1277L84.5784 44.2655L84.6844 45.3353L77.8215 48.8895Z" fill="white"/>
<path d="M80.9572 53.6235C80.9209 53.8944 80.922 54.1367 80.9607 54.3504C80.9988 54.5674 81.0681 54.7532 81.1684 54.9079C81.2721 55.063 81.4019 55.1864 81.5578 55.2779C81.717 55.3698 81.8973 55.4293 82.0989 55.4563C82.5085 55.5112 82.8356 55.4172 83.08 55.1741C83.324 54.9344 83.4821 54.5453 83.5543 54.0068L83.6877 53.0107L81.086 52.6621L80.9572 53.6235ZM76.8252 56.4497L76.9514 55.5082C76.9766 55.3198 77.0693 55.1927 77.2295 55.1267L79.9332 53.6981C80.0233 53.653 80.0893 53.5997 80.1312 53.538C80.1764 53.4768 80.2078 53.3801 80.2256 53.248L80.3179 52.5591L77.3989 52.168L77.5404 51.1124L84.6568 52.066L84.3819 54.1177C84.3203 54.5769 84.2195 54.9653 84.0794 55.2828C83.9422 55.6041 83.7717 55.8604 83.5678 56.0517C83.3668 56.2467 83.1372 56.3791 82.879 56.4487C82.6203 56.5217 82.339 56.5378 82.0351 56.4971C81.7873 56.4639 81.5595 56.3947 81.3516 56.2895C81.1437 56.1843 80.9622 56.0456 80.807 55.8735C80.6547 55.7051 80.5299 55.5067 80.4327 55.2785C80.3355 55.0502 80.2718 54.7978 80.2416 54.5214C80.1446 54.6429 80.0186 54.7421 79.8637 54.8188L76.8252 56.4497Z" fill="white"/>
<path d="M80.2717 65.3148L81.0689 63.1787L75.176 60.9793L75.5466 59.9862L81.4396 62.1856L82.2403 60.0401L83.0741 60.3513L81.1055 65.626L80.2717 65.3148Z" fill="white"/>
<path d="M71.3062 69.6373L70.5859 69.1582L73.0291 65.4389L79.0302 69.3809L76.587 73.1003L75.864 72.6254L77.7198 69.8003L75.8183 68.5513L74.3249 70.8247L73.6271 70.3662L75.1204 68.0929L73.1646 66.8081L71.3062 69.6373Z" fill="white"/>
<path d="M66.4274 78.3833C66.0617 77.9905 65.7924 77.574 65.6195 77.1338C65.4442 76.696 65.3633 76.2544 65.3769 75.8091C65.3927 75.3663 65.5014 74.9326 65.703 74.5082C65.9045 74.0839 66.2004 73.69 66.5908 73.3266L68.5671 71.487L73.4591 76.7425L71.4828 78.5821C71.0925 78.9455 70.6784 79.2125 70.2407 79.3831C69.803 79.5538 69.3615 79.63 68.9164 79.6117C68.4736 79.5958 68.0389 79.4835 67.6124 79.2748C67.1858 79.0709 66.7907 78.7737 66.4274 78.3833ZM67.2252 77.6407C67.5159 77.953 67.8187 78.1926 68.1334 78.3595C68.4505 78.5289 68.7678 78.6252 69.0854 78.6484C69.4028 78.6762 69.7157 78.6308 70.0242 78.5122C70.3303 78.3958 70.6212 78.2093 70.8969 77.9526L72.09 76.842L68.3699 72.8455L67.1768 73.9561C66.9011 74.2127 66.6942 74.4895 66.5562 74.7865C66.4158 75.0857 66.347 75.3934 66.3498 75.7095C66.3525 76.0304 66.4258 76.3537 66.5698 76.6797C66.7138 77.0056 66.9322 77.3259 67.2252 77.6407Z" fill="white"/>
<path d="M50.0304 82.2355C50.0809 82.3531 50.1068 82.4736 50.1082 82.5968C50.1095 82.7201 50.09 82.8368 50.0496 82.947C50.0048 83.0591 49.9396 83.1593 49.8537 83.2478C49.7697 83.3406 49.6668 83.4132 49.5448 83.4656C49.4272 83.5161 49.3058 83.5398 49.1807 83.5368C49.0575 83.5381 48.9398 83.5164 48.8277 83.4717C48.7156 83.4269 48.6154 83.3616 48.5269 83.2758C48.4341 83.1918 48.3625 83.091 48.3119 82.9734C48.2596 82.8515 48.2349 82.7279 48.2379 82.6028C48.2366 82.4795 48.2583 82.3619 48.303 82.2498C48.3478 82.1377 48.4131 82.0375 48.4989 81.949C48.5847 81.8606 48.6865 81.7911 48.8041 81.7406C48.9261 81.6882 49.0487 81.6613 49.1719 81.66C49.2952 81.6587 49.4128 81.6804 49.5249 81.7251C49.6326 81.7717 49.7307 81.838 49.8192 81.9238C49.9076 82.0096 49.978 82.1135 50.0304 82.2355Z" fill="white"/>
</svg>
