<svg width="90" height="28" viewBox="0 0 90 28" fill="none" xmlns="http://www.w3.org/2000/svg">
<g clip-path="url(#clip0_32_843)">
<path d="M66.9277 26.8499L74.4333 18.537L66.9277 10.2229H74.8469L78.5643 14.2613L82.144 10.2229H89.7869L82.3169 18.5026L89.8895 26.8499H81.9378L78.254 22.7783L74.6051 26.8499H66.9277Z" fill="#FF6600"/>
<path d="M66.9274 6.49574H58.4267V10.2229H66.9274V15.8401H58.4267V20.9959H66.9274V26.8499H52.1787V0.657959H66.9274V6.49574Z" fill="#FF6600"/>
<path d="M45.9571 0.657959V11.377H45.8887C44.5113 9.81636 42.7903 9.27404 40.7935 9.27404C36.7032 9.27404 33.622 12.0149 32.5405 15.6387C31.3071 11.6458 28.1262 9.19921 23.4094 9.19921C19.5789 9.19921 16.5541 10.894 14.9756 13.6558V10.2233H7.05796V6.49652H15.6983V0.657959H0V26.8503H7.05796V15.8401H14.0928C13.8831 16.6489 13.7712 17.5148 13.7712 18.4286C13.7712 23.8922 18.0055 27.7258 23.4094 27.7258C27.9536 27.7258 30.9483 25.6229 32.5323 21.7889H26.4839C25.6657 22.9407 25.045 23.2828 23.4094 23.2828C21.5127 23.2828 19.8775 21.6516 19.8775 19.718H32.1934C32.7275 24.0577 36.1569 27.8003 40.8631 27.8003C42.8932 27.8003 44.7519 26.8159 45.8887 25.1539H45.9571V26.8495H52.1789V0.657959H45.9571ZM20.0739 15.9184C20.4664 14.2548 21.7753 13.1674 23.4094 13.1674C25.2082 13.1674 26.4506 14.2212 26.7773 15.9184C26.9151 15.9184 20.0739 15.9184 20.0739 15.9184ZM42.1814 22.862C39.888 22.862 38.4629 20.7556 38.4629 18.5563C38.4629 16.2053 39.7025 13.9447 42.1814 13.9447C44.7519 13.9447 45.776 16.2053 45.776 18.5563C45.7756 20.7857 44.6905 22.862 42.1814 22.862Z" fill="#652C8F"/>
</g>
<defs>
<clipPath id="clip0_32_843">
<rect width="90" height="27" fill="white" transform="translate(0 0.657959)"/>
</clipPath>
</defs>
</svg>
