<svg width="35" height="35" viewBox="0 0 35 35" fill="none" xmlns="http://www.w3.org/2000/svg">
<g clip-path="url(#clip0_63_1077)">
<mask id="mask0_63_1077" style="mask-type:luminance" maskUnits="userSpaceOnUse" x="0" y="0" width="35" height="35">
<path d="M17.5 35C27.165 35 35 27.165 35 17.5C35 7.83502 27.165 0 17.5 0C7.83502 0 0 7.83502 0 17.5C0 27.165 7.83502 35 17.5 35Z" fill="white"/>
</mask>
<g mask="url(#mask0_63_1077)">
<path d="M7.51953 70.8203C28.2841 70.8203 45.1172 53.9873 45.1172 33.2227C45.1172 12.458 28.2841 -4.375 7.51953 -4.375C-13.2451 -4.375 -30.0781 12.458 -30.0781 33.2227C-30.0781 53.9873 -13.2451 70.8203 7.51953 70.8203Z" fill="url(#paint0_radial_63_1077)"/>
</g>
</g>
<g clip-path="url(#clip1_63_1077)">
<path d="M13.6114 16.9167C13.6114 16.2629 13.8052 15.6238 14.1685 15.0802C14.5317 14.5366 15.048 14.1129 15.652 13.8627C16.2561 13.6125 16.9207 13.5471 17.562 13.6746C18.2032 13.8022 18.7922 14.117 19.2545 14.5793C19.7168 15.0416 20.0317 15.6306 20.1592 16.2718C20.2868 16.913 20.2213 17.5776 19.9711 18.1816C19.7209 18.7857 19.2972 19.3019 18.7536 19.6651C18.21 20.0284 17.5709 20.2222 16.9171 20.2222C16.0403 20.2222 15.1995 19.874 14.5796 19.254C13.9596 18.6341 13.6114 17.7934 13.6114 16.9167ZM11.8242 16.9167C11.8242 17.9238 12.1228 18.9082 12.6823 19.7456C13.2419 20.583 14.0371 21.2357 14.9676 21.6211C15.8981 22.0065 16.9219 22.1074 17.9097 21.911C18.8975 21.7145 19.8049 21.2296 20.5171 20.5175C21.2293 19.8055 21.7143 18.8982 21.9109 17.9104C22.1074 16.9227 22.0067 15.8989 21.6213 14.9684C21.236 14.0379 20.5834 13.2426 19.746 12.683C18.9087 12.1234 17.9242 11.8247 16.9171 11.8246C16.2483 11.8245 15.5861 11.9562 14.9683 12.2121C14.3504 12.468 13.7891 12.8431 13.3162 13.3159C12.8433 13.7888 12.4682 14.3502 12.2123 14.968C11.9564 15.5858 11.8247 16.248 11.8247 16.9167M21.02 11.6227C21.0199 11.8581 21.0896 12.0882 21.2203 12.2839C21.351 12.4797 21.5368 12.6322 21.7543 12.7224C21.9717 12.8125 22.211 12.8362 22.4418 12.7903C22.6727 12.7445 22.8848 12.6312 23.0513 12.4648C23.2177 12.2985 23.3312 12.0865 23.3771 11.8556C23.4231 11.6248 23.3997 11.3856 23.3097 11.1681C23.2197 10.9506 23.0672 10.7647 22.8715 10.6339C22.6759 10.5031 22.4458 10.4332 22.2104 10.4331C21.8949 10.4333 21.5924 10.5586 21.3692 10.7817C21.1461 11.0047 21.0206 11.3072 21.0204 11.6227M12.9113 24.9886C12.2824 24.9815 11.6595 24.8661 11.0697 24.6476C10.639 24.4884 10.2492 24.2349 9.92903 23.9058C9.59937 23.5863 9.34583 23.1967 9.1872 22.7659C8.96832 22.1763 8.85268 21.5533 8.84535 20.9244C8.79732 19.879 8.78701 19.565 8.78701 16.9169C8.78701 14.2687 8.79732 13.9555 8.84535 12.9094C8.85325 12.2805 8.9686 11.6577 9.18642 11.0678C9.34563 10.6371 9.59909 10.2474 9.92825 9.92717C10.2479 9.59733 10.6378 9.34378 11.0689 9.18536C11.6589 8.96661 12.2822 8.85117 12.9113 8.84411C13.9567 8.79608 14.2708 8.78578 16.9171 8.78578C19.5634 8.78578 19.8786 8.79608 20.9247 8.84411C21.5536 8.85201 22.1764 8.96735 22.7664 9.18517C23.1973 9.34408 23.587 9.59756 23.907 9.92697C24.2364 10.247 24.4899 10.6367 24.6489 11.0676C24.8675 11.6573 24.9828 12.2803 24.9899 12.9092C25.038 13.9553 25.0483 14.2685 25.0483 16.9167C25.0483 19.5648 25.0387 19.8781 24.9899 20.9242C24.9823 21.553 24.867 22.1759 24.6489 22.7658C24.4838 23.1934 24.2311 23.5818 23.9068 23.9059C23.5826 24.2299 23.1941 24.4825 22.7664 24.6474C22.1766 24.866 21.5536 24.9814 20.9247 24.9884C19.8793 25.0365 19.5653 25.0468 16.9171 25.0468C14.2688 25.0468 13.9556 25.0374 12.9113 24.9886ZM12.8285 7.06008C12.0059 7.07636 11.1919 7.23212 10.4214 7.52072C9.75959 7.76974 9.16004 8.16004 8.66451 8.66444C8.15957 9.15949 7.76911 9.75906 7.52055 10.4211C7.232 11.1916 7.0763 12.0056 7.06009 12.8283C7.01128 13.8857 7 14.2236 7 16.9167C7 19.6097 7.01128 19.9477 7.06009 21.0051C7.07638 21.8277 7.23214 22.6416 7.52074 23.4121C7.7693 24.0741 8.15968 24.6737 8.66451 25.1689C9.16021 25.673 9.75962 26.0634 10.4212 26.3128C11.1918 26.6013 12.0057 26.7571 12.8283 26.7734C13.8863 26.8215 14.2237 26.8335 16.9169 26.8335C19.61 26.8335 19.948 26.8223 21.0054 26.7734C21.8281 26.7572 22.642 26.6014 23.4125 26.3128C24.0715 26.0581 24.6699 25.6684 25.1694 25.1689C25.669 24.6694 26.0586 24.071 26.3134 23.4121C26.6024 22.6417 26.7581 21.8277 26.774 21.0051C26.8221 19.9469 26.8324 19.6097 26.8324 16.9167C26.8324 14.2236 26.8211 13.8857 26.774 12.8283C26.7578 12.0057 26.602 11.1918 26.3134 10.4212C26.064 9.75966 25.6737 9.16021 25.1696 8.66444C24.6746 8.1598 24.0753 7.76939 23.4137 7.52053C22.6431 7.23177 21.8291 7.07607 21.0064 7.06008C19.9491 7.01206 19.611 7 16.9171 7C14.2231 7 13.8855 7.01128 12.8277 7.06008" fill="url(#paint1_radial_63_1077)"/>
<path d="M13.6114 16.9167C13.6114 16.2629 13.8052 15.6238 14.1685 15.0802C14.5317 14.5366 15.048 14.1129 15.652 13.8627C16.2561 13.6125 16.9207 13.5471 17.562 13.6746C18.2032 13.8022 18.7922 14.117 19.2545 14.5793C19.7168 15.0416 20.0317 15.6306 20.1592 16.2718C20.2868 16.913 20.2213 17.5776 19.9711 18.1816C19.7209 18.7857 19.2972 19.3019 18.7536 19.6651C18.21 20.0284 17.5709 20.2222 16.9171 20.2222C16.0403 20.2222 15.1995 19.874 14.5796 19.254C13.9596 18.6341 13.6114 17.7934 13.6114 16.9167ZM11.8242 16.9167C11.8242 17.9238 12.1228 18.9082 12.6823 19.7456C13.2419 20.583 14.0371 21.2357 14.9676 21.6211C15.8981 22.0065 16.9219 22.1074 17.9097 21.911C18.8975 21.7145 19.8049 21.2296 20.5171 20.5175C21.2293 19.8055 21.7143 18.8982 21.9109 17.9104C22.1074 16.9227 22.0067 15.8989 21.6213 14.9684C21.236 14.0379 20.5834 13.2426 19.746 12.683C18.9087 12.1234 17.9242 11.8247 16.9171 11.8246C16.2483 11.8245 15.5861 11.9562 14.9683 12.2121C14.3504 12.468 13.7891 12.8431 13.3162 13.3159C12.8433 13.7888 12.4682 14.3502 12.2123 14.968C11.9564 15.5858 11.8247 16.248 11.8247 16.9167M21.02 11.6227C21.0199 11.8581 21.0896 12.0882 21.2203 12.2839C21.351 12.4797 21.5368 12.6322 21.7543 12.7224C21.9717 12.8125 22.211 12.8362 22.4418 12.7903C22.6727 12.7445 22.8848 12.6312 23.0513 12.4648C23.2177 12.2985 23.3312 12.0865 23.3771 11.8556C23.4231 11.6248 23.3997 11.3856 23.3097 11.1681C23.2197 10.9506 23.0672 10.7647 22.8715 10.6339C22.6759 10.5031 22.4458 10.4332 22.2104 10.4331C21.8949 10.4333 21.5924 10.5586 21.3692 10.7817C21.1461 11.0047 21.0206 11.3072 21.0204 11.6227M12.9113 24.9886C12.2824 24.9815 11.6595 24.8661 11.0697 24.6476C10.639 24.4884 10.2492 24.2349 9.92903 23.9058C9.59937 23.5863 9.34583 23.1967 9.1872 22.7659C8.96832 22.1763 8.85268 21.5533 8.84535 20.9244C8.79732 19.879 8.78701 19.565 8.78701 16.9169C8.78701 14.2687 8.79732 13.9555 8.84535 12.9094C8.85325 12.2805 8.9686 11.6577 9.18642 11.0678C9.34563 10.6371 9.59909 10.2474 9.92825 9.92717C10.2479 9.59733 10.6378 9.34378 11.0689 9.18536C11.6589 8.96661 12.2822 8.85117 12.9113 8.84411C13.9567 8.79608 14.2708 8.78578 16.9171 8.78578C19.5634 8.78578 19.8786 8.79608 20.9247 8.84411C21.5536 8.85201 22.1764 8.96735 22.7664 9.18517C23.1973 9.34408 23.587 9.59756 23.907 9.92697C24.2364 10.247 24.4899 10.6367 24.6489 11.0676C24.8675 11.6573 24.9828 12.2803 24.9899 12.9092C25.038 13.9553 25.0483 14.2685 25.0483 16.9167C25.0483 19.5648 25.0387 19.8781 24.9899 20.9242C24.9823 21.553 24.867 22.1759 24.6489 22.7658C24.4838 23.1934 24.2311 23.5818 23.9068 23.9059C23.5826 24.2299 23.1941 24.4825 22.7664 24.6474C22.1766 24.866 21.5536 24.9814 20.9247 24.9884C19.8793 25.0365 19.5653 25.0468 16.9171 25.0468C14.2688 25.0468 13.9556 25.0374 12.9113 24.9886ZM12.8285 7.06008C12.0059 7.07636 11.1919 7.23212 10.4214 7.52072C9.75959 7.76974 9.16004 8.16004 8.66451 8.66444C8.15957 9.15949 7.76911 9.75906 7.52055 10.4211C7.232 11.1916 7.0763 12.0056 7.06009 12.8283C7.01128 13.8857 7 14.2236 7 16.9167C7 19.6097 7.01128 19.9477 7.06009 21.0051C7.07638 21.8277 7.23214 22.6416 7.52074 23.4121C7.7693 24.0741 8.15968 24.6737 8.66451 25.1689C9.16021 25.673 9.75962 26.0634 10.4212 26.3128C11.1918 26.6013 12.0057 26.7571 12.8283 26.7734C13.8863 26.8215 14.2237 26.8335 16.9169 26.8335C19.61 26.8335 19.948 26.8223 21.0054 26.7734C21.8281 26.7572 22.642 26.6014 23.4125 26.3128C24.0715 26.0581 24.6699 25.6684 25.1694 25.1689C25.669 24.6694 26.0586 24.071 26.3134 23.4121C26.6024 22.6417 26.7581 21.8277 26.774 21.0051C26.8221 19.9469 26.8324 19.6097 26.8324 16.9167C26.8324 14.2236 26.8211 13.8857 26.774 12.8283C26.7578 12.0057 26.602 11.1918 26.3134 10.4212C26.064 9.75966 25.6737 9.16021 25.1696 8.66444C24.6746 8.1598 24.0753 7.76939 23.4137 7.52053C22.6431 7.23177 21.8291 7.07607 21.0064 7.06008C19.9491 7.01206 19.611 7 16.9171 7C14.2231 7 13.8855 7.01128 12.8277 7.06008" fill="white"/>
</g>
<defs>
<radialGradient id="paint0_radial_63_1077" cx="0" cy="0" r="1" gradientUnits="userSpaceOnUse" gradientTransform="translate(7.51953 33.2227) scale(37.5977)">
<stop stop-color="#FFD676"/>
<stop offset="0.25" stop-color="#F2A454"/>
<stop offset="0.38" stop-color="#F05C3C"/>
<stop offset="0.7" stop-color="#C22F86"/>
<stop offset="0.96" stop-color="#6666AD"/>
<stop offset="0.99" stop-color="#5C6CB2"/>
</radialGradient>
<radialGradient id="paint1_radial_63_1077" cx="0" cy="0" r="1" gradientUnits="userSpaceOnUse" gradientTransform="translate(9.63502 26.9271) scale(25.8907 25.8897)">
<stop offset="0.09" stop-color="#FA8F21"/>
<stop offset="0.78" stop-color="#D82D7E"/>
</radialGradient>
<clipPath id="clip0_63_1077">
<rect width="35" height="35" fill="white"/>
</clipPath>
<clipPath id="clip1_63_1077">
<rect width="19.8333" height="19.8333" fill="white" transform="translate(7 7)"/>
</clipPath>
</defs>
</svg>
