<svg width="24" height="24" viewBox="0 0 24 24" fill="none" xmlns="http://www.w3.org/2000/svg">
<g clip-path="url(#clip0_23_2237)">
<path d="M11.9246 0.75C7.04961 0.75 2.88711 3.9 1.34961 8.25H22.5746C20.9996 3.9 16.8371 0.75 11.9246 0.75Z" fill="#F2B200"/>
<path d="M11.9246 23.25C16.8371 23.25 20.9996 20.1375 22.5371 15.75H1.34961C2.88711 20.1375 7.04961 23.25 11.9246 23.25Z" fill="#83BF4F"/>
<path d="M1.35039 8.25C0.937891 9.4125 0.712891 10.6875 0.712891 12C0.712891 13.3125 0.937891 14.5875 1.35039 15.75H22.5754C22.9879 14.5875 23.2129 13.3125 23.2129 12C23.2129 10.6875 22.9879 9.4125 22.5754 8.25H1.35039Z" fill="white"/>
<path d="M11.9248 15C13.5817 15 14.9248 13.6569 14.9248 12C14.9248 10.3431 13.5817 9 11.9248 9C10.268 9 8.9248 10.3431 8.9248 12C8.9248 13.6569 10.268 15 11.9248 15Z" fill="#428BC1"/>
<path d="M11.9248 14.625C13.3746 14.625 14.5498 13.4497 14.5498 12C14.5498 10.5503 13.3746 9.375 11.9248 9.375C10.4751 9.375 9.2998 10.5503 9.2998 12C9.2998 13.4497 10.4751 14.625 11.9248 14.625Z" fill="white"/>
<path d="M10.9502 9.75C11.0537 9.75 11.1377 9.66605 11.1377 9.5625C11.1377 9.45895 11.0537 9.375 10.9502 9.375C10.8466 9.375 10.7627 9.45895 10.7627 9.5625C10.7627 9.66605 10.8466 9.75 10.9502 9.75Z" fill="#428BC1"/>
<path d="M10.3506 10.0875C10.4541 10.0875 10.5381 10.0035 10.5381 9.89999C10.5381 9.79644 10.4541 9.71249 10.3506 9.71249C10.247 9.71249 10.1631 9.79644 10.1631 9.89999C10.1631 10.0035 10.247 10.0875 10.3506 10.0875Z" fill="#428BC1"/>
<path d="M9.86328 10.575C9.96683 10.575 10.0508 10.491 10.0508 10.3875C10.0508 10.2839 9.96683 10.2 9.86328 10.2C9.75973 10.2 9.67578 10.2839 9.67578 10.3875C9.67578 10.491 9.75973 10.575 9.86328 10.575Z" fill="#428BC1"/>
<path d="M9.52539 11.175C9.62894 11.175 9.71289 11.091 9.71289 10.9875C9.71289 10.8839 9.62894 10.8 9.52539 10.8C9.42184 10.8 9.33789 10.8839 9.33789 10.9875C9.33789 11.091 9.42184 11.175 9.52539 11.175Z" fill="#428BC1"/>
<path d="M9.33789 11.85C9.44144 11.85 9.52539 11.766 9.52539 11.6625C9.52539 11.5589 9.44144 11.475 9.33789 11.475C9.23434 11.475 9.15039 11.5589 9.15039 11.6625C9.15039 11.766 9.23434 11.85 9.33789 11.85Z" fill="#428BC1"/>
<path d="M9.33789 12.525C9.44144 12.525 9.52539 12.441 9.52539 12.3375C9.52539 12.2339 9.44144 12.15 9.33789 12.15C9.23434 12.15 9.15039 12.2339 9.15039 12.3375C9.15039 12.441 9.23434 12.525 9.33789 12.525Z" fill="#428BC1"/>
<path d="M9.52539 13.2C9.62894 13.2 9.71289 13.116 9.71289 13.0125C9.71289 12.9089 9.62894 12.825 9.52539 12.825C9.42184 12.825 9.33789 12.9089 9.33789 13.0125C9.33789 13.116 9.42184 13.2 9.52539 13.2Z" fill="#428BC1"/>
<path d="M9.86328 13.8C9.96683 13.8 10.0508 13.716 10.0508 13.6125C10.0508 13.5089 9.96683 13.425 9.86328 13.425C9.75973 13.425 9.67578 13.5089 9.67578 13.6125C9.67578 13.716 9.75973 13.8 9.86328 13.8Z" fill="#428BC1"/>
<path d="M10.3506 14.2875C10.4541 14.2875 10.5381 14.2035 10.5381 14.1C10.5381 13.9964 10.4541 13.9125 10.3506 13.9125C10.247 13.9125 10.1631 13.9964 10.1631 14.1C10.1631 14.2035 10.247 14.2875 10.3506 14.2875Z" fill="#428BC1"/>
<path d="M10.9502 14.625C11.0537 14.625 11.1377 14.5411 11.1377 14.4375C11.1377 14.3339 11.0537 14.25 10.9502 14.25C10.8466 14.25 10.7627 14.3339 10.7627 14.4375C10.7627 14.5411 10.8466 14.625 10.9502 14.625Z" fill="#428BC1"/>
<path d="M11.5879 14.775C11.6914 14.775 11.7754 14.691 11.7754 14.5875C11.7754 14.4839 11.6914 14.4 11.5879 14.4C11.4843 14.4 11.4004 14.4839 11.4004 14.5875C11.4004 14.691 11.4843 14.775 11.5879 14.775Z" fill="#428BC1"/>
<path d="M12.1133 14.625C12.1133 14.5125 12.1883 14.4375 12.2633 14.4C12.3758 14.4 12.4508 14.475 12.4883 14.55C12.4883 14.6625 12.4133 14.7375 12.3383 14.775C12.1883 14.8125 12.1133 14.7375 12.1133 14.625Z" fill="#428BC1"/>
<path d="M12.9375 14.625C13.0411 14.625 13.125 14.5411 13.125 14.4375C13.125 14.3339 13.0411 14.25 12.9375 14.25C12.8339 14.25 12.75 14.3339 12.75 14.4375C12.75 14.5411 12.8339 14.625 12.9375 14.625Z" fill="#428BC1"/>
<path d="M13.5381 14.2875C13.6416 14.2875 13.7256 14.2035 13.7256 14.1C13.7256 13.9964 13.6416 13.9125 13.5381 13.9125C13.4345 13.9125 13.3506 13.9964 13.3506 14.1C13.3506 14.2035 13.4345 14.2875 13.5381 14.2875Z" fill="#428BC1"/>
<path d="M14.0254 13.8C14.1289 13.8 14.2129 13.716 14.2129 13.6125C14.2129 13.5089 14.1289 13.425 14.0254 13.425C13.9218 13.425 13.8379 13.5089 13.8379 13.6125C13.8379 13.716 13.9218 13.8 14.0254 13.8Z" fill="#428BC1"/>
<path d="M14.3633 13.2C14.4668 13.2 14.5508 13.116 14.5508 13.0125C14.5508 12.9089 14.4668 12.825 14.3633 12.825C14.2597 12.825 14.1758 12.9089 14.1758 13.0125C14.1758 13.116 14.2597 13.2 14.3633 13.2Z" fill="#428BC1"/>
<path d="M14.5508 12.525C14.6543 12.525 14.7383 12.441 14.7383 12.3375C14.7383 12.2339 14.6543 12.15 14.5508 12.15C14.4472 12.15 14.3633 12.2339 14.3633 12.3375C14.3633 12.441 14.4472 12.525 14.5508 12.525Z" fill="#428BC1"/>
<path d="M14.5502 11.85C14.4377 11.85 14.3627 11.775 14.3252 11.7C14.3252 11.5875 14.4002 11.5125 14.4752 11.475C14.5877 11.475 14.6627 11.55 14.7002 11.625C14.7377 11.7375 14.6627 11.8125 14.5502 11.85Z" fill="#428BC1"/>
<path d="M14.3633 11.175C14.4668 11.175 14.5508 11.091 14.5508 10.9875C14.5508 10.8839 14.4668 10.8 14.3633 10.8C14.2597 10.8 14.1758 10.8839 14.1758 10.9875C14.1758 11.091 14.2597 11.175 14.3633 11.175Z" fill="#428BC1"/>
<path d="M14.0254 10.575C14.1289 10.575 14.2129 10.491 14.2129 10.3875C14.2129 10.2839 14.1289 10.2 14.0254 10.2C13.9218 10.2 13.8379 10.2839 13.8379 10.3875C13.8379 10.491 13.9218 10.575 14.0254 10.575Z" fill="#428BC1"/>
<path d="M13.5381 10.0875C13.6416 10.0875 13.7256 10.0035 13.7256 9.89999C13.7256 9.79644 13.6416 9.71249 13.5381 9.71249C13.4345 9.71249 13.3506 9.79644 13.3506 9.89999C13.3506 10.0035 13.4345 10.0875 13.5381 10.0875Z" fill="#428BC1"/>
<path d="M13.1254 9.63749C13.0879 9.74999 12.9754 9.78749 12.8629 9.74999C12.7504 9.71249 12.7129 9.59999 12.7504 9.48749C12.7879 9.37499 12.9004 9.33749 13.0129 9.37499C13.1254 9.44999 13.1629 9.56249 13.1254 9.63749ZM12.4504 9.41249C12.4504 9.52499 12.3379 9.59999 12.2254 9.56249C12.1129 9.56249 12.0379 9.44999 12.0754 9.33749C12.0754 9.22499 12.1879 9.14999 12.3004 9.18749C12.4129 9.22499 12.4879 9.33749 12.4504 9.41249ZM11.7754 9.37499C11.7754 9.48749 11.7004 9.56249 11.6254 9.59999C11.5129 9.59999 11.4379 9.52499 11.4004 9.44999C11.4004 9.33749 11.4754 9.26249 11.5504 9.22499C11.6629 9.18749 11.7754 9.26249 11.7754 9.37499Z" fill="#428BC1"/>
<path d="M11.9258 12.5625C12.2364 12.5625 12.4883 12.3107 12.4883 12C12.4883 11.6893 12.2364 11.4375 11.9258 11.4375C11.6151 11.4375 11.3633 11.6893 11.3633 12C11.3633 12.3107 11.6151 12.5625 11.9258 12.5625Z" fill="#428BC1"/>
<path d="M11.925 9.375L11.85 10.9875L11.925 12L12.0375 10.9875L11.925 9.375ZM11.25 9.45L11.5875 11.0625L11.925 12L11.775 10.9875L11.25 9.45Z" fill="#428BC1"/>
<path d="M10.6129 9.71249L11.3629 11.175L11.9254 12L11.5129 11.0625L10.6129 9.71249ZM10.0879 10.125L11.1754 11.3625L11.9254 12L11.2879 11.2125L10.0879 10.125Z" fill="#428BC1"/>
<path d="M9.67578 10.6875L11.0258 11.5875L11.9258 12L11.1008 11.4L9.67578 10.6875Z" fill="#428BC1"/>
<path d="M9.41328 11.325L10.9508 11.8125L11.9258 12L10.9883 11.6625L9.41328 11.325ZM9.30078 12L10.9508 12.075L11.9258 12L10.9508 11.925L9.30078 12Z" fill="#428BC1"/>
<path d="M9.41309 12.675L10.9881 12.3375L11.9256 12L10.9506 12.1875L9.41309 12.675ZM9.67559 13.3125L11.1006 12.6L11.9256 12L11.0256 12.4125L9.67559 13.3125Z" fill="#428BC1"/>
<path d="M10.0879 13.8375L11.2879 12.7875L11.9254 12L11.1754 12.6375L10.0879 13.8375ZM10.6129 14.2875L11.5129 12.9L11.9254 12L11.3629 12.825L10.6129 14.2875Z" fill="#428BC1"/>
<path d="M11.25 14.55L11.775 13.0125L11.925 12L11.5875 12.9375L11.25 14.55ZM11.925 14.625L12.0375 13.0125L11.925 12L11.85 13.0125L11.925 14.625ZM12.6 14.55L12.3 12.9375L11.925 12L12.1125 13.0125L12.6 14.55Z" fill="#428BC1"/>
<path d="M13.2383 14.2875L12.5258 12.825L11.9258 12L12.3758 12.9375L13.2383 14.2875ZM13.8008 13.8375L12.7133 12.6375L11.9258 12L12.6008 12.7875L13.8008 13.8375Z" fill="#428BC1"/>
<path d="M14.2133 13.3125L12.8633 12.4125L11.9258 12L12.7508 12.6L14.2133 13.3125ZM14.4758 12.675L12.9383 12.1875L11.9258 12L12.9008 12.3375L14.4758 12.675ZM14.5508 12L12.9383 11.8875L11.9258 12L12.9383 12.075L14.5508 12ZM14.4758 11.325L12.9008 11.6625L11.9258 12L12.9383 11.8125L14.4758 11.325Z" fill="#428BC1"/>
<path d="M14.2133 10.6875L12.7508 11.4L11.9258 12L12.8633 11.5875L14.2133 10.6875ZM13.8008 10.1625L12.6008 11.2125L11.9258 12L12.7133 11.3625L13.8008 10.1625Z" fill="#428BC1"/>
<path d="M13.2383 9.71249L12.3758 11.1L11.9258 12L12.5258 11.175L13.2383 9.71249Z" fill="#428BC1"/>
<path d="M12.6383 9.44998L12.1133 10.9875L11.9258 12L12.3008 11.0625L12.6383 9.44998Z" fill="#428BC1"/>
</g>
<defs>
<clipPath id="clip0_23_2237">
<rect width="24" height="24" fill="white"/>
</clipPath>
</defs>
</svg>
