<svg width="90" height="31" viewBox="0 0 90 31" fill="none" xmlns="http://www.w3.org/2000/svg">
<path d="M38.2995 15.5468C38.2995 19.7547 34.9939 22.8555 30.9373 22.8555C26.8807 22.8555 23.5752 19.7547 23.5752 15.5468C23.5752 11.3092 26.8807 8.23804 30.9373 8.23804C34.9939 8.23804 38.2995 11.3092 38.2995 15.5468ZM35.0767 15.5468C35.0767 12.9172 33.1609 11.118 30.9373 11.118C28.7138 11.118 26.798 12.9172 26.798 15.5468C26.798 18.15 28.7138 19.9755 30.9373 19.9755C33.1609 19.9755 35.0767 18.1467 35.0767 15.5468Z" fill="#EA4335"/>
<path d="M54.1823 15.5468C54.1823 19.7547 50.8768 22.8555 46.8201 22.8555C42.7635 22.8555 39.458 19.7547 39.458 15.5468C39.458 11.3125 42.7635 8.23804 46.8201 8.23804C50.8768 8.23804 54.1823 11.3092 54.1823 15.5468ZM50.9595 15.5468C50.9595 12.9172 49.0437 11.118 46.8201 11.118C44.5966 11.118 42.6808 12.9172 42.6808 15.5468C42.6808 18.15 44.5966 19.9755 46.8201 19.9755C49.0437 19.9755 50.9595 18.1467 50.9595 15.5468Z" fill="#FBBC05"/>
<path d="M69.4021 8.67959V21.8011C69.4021 27.1986 66.2058 29.4031 62.4271 29.4031C58.8701 29.4031 56.7293 27.0338 55.922 25.0963L58.7279 23.933C59.2275 25.1226 60.4518 26.5264 62.4238 26.5264C64.8426 26.5264 66.3415 25.0402 66.3415 22.2426V21.1914H66.229C65.5077 22.0779 64.1179 22.8522 62.3643 22.8522C58.6948 22.8522 55.333 19.6691 55.333 15.5731C55.333 11.4476 58.6948 8.23804 62.3643 8.23804C64.1146 8.23804 65.5043 9.01241 66.229 9.87245H66.3415V8.68289H69.4021V8.67959ZM66.5698 15.5731C66.5698 12.9996 64.8459 11.118 62.6521 11.118C60.4286 11.118 58.5657 12.9996 58.5657 15.5731C58.5657 18.1203 60.4286 19.9755 62.6521 19.9755C64.8459 19.9755 66.5698 18.1203 66.5698 15.5731Z" fill="#4285F4"/>
<path d="M74.4481 0.988525V22.4073H71.3047V0.988525H74.4481Z" fill="#34A853"/>
<path d="M86.6977 17.9521L89.1992 19.6129C88.3918 20.8025 86.4462 22.8521 83.0845 22.8521C78.9154 22.8521 75.8018 19.6426 75.8018 15.5434C75.8018 11.197 78.9418 8.23462 82.7238 8.23462C86.5323 8.23462 88.3951 11.253 89.004 12.8841L89.3382 13.7145L79.5275 17.761C80.2786 19.2274 81.4466 19.9754 83.0845 19.9754C84.7257 19.9754 85.8639 19.1714 86.6977 17.9521ZM78.9981 15.3226L85.5562 12.6106C85.1955 11.6979 84.1102 11.0619 82.833 11.0619C81.1951 11.0619 78.9154 12.5019 78.9981 15.3226Z" fill="#EA4335"/>
<path d="M11.6769 13.6453V10.5445H22.1691C22.2717 11.0849 22.3247 11.7242 22.3247 12.4162C22.3247 14.7426 21.6861 17.6193 19.628 19.6689C17.6261 21.7449 15.0684 22.8521 11.6802 22.8521C5.40002 22.8521 0.119141 17.7577 0.119141 11.5034C0.119141 5.24916 5.40002 0.154785 11.6802 0.154785C15.1544 0.154785 17.6294 1.51241 19.489 3.28192L17.2919 5.46993C15.9585 4.22435 14.1519 3.25556 11.6769 3.25556C7.09083 3.25556 3.50407 6.9363 3.50407 11.5034C3.50407 16.0706 7.09083 19.7513 11.6769 19.7513C14.6515 19.7513 16.3456 18.5617 17.4309 17.4809C18.3111 16.6044 18.8901 15.3522 19.1184 13.642L11.6769 13.6453Z" fill="#4285F4"/>
</svg>
