<svg width="90" height="27" viewBox="0 0 90 27" fill="none" xmlns="http://www.w3.org/2000/svg">
<g clip-path="url(#clip0_32_844)">
<path d="M9.74652 4.55737V11.8107H3.13764V4.55737H0V21.8717H3.13764V14.8539H9.74652V21.8717H12.8842V4.55737H9.74652Z" fill="#33475B"/>
<path d="M22.9255 16.2749C22.9255 16.9688 22.652 17.6343 22.1652 18.1249C21.6784 18.6156 21.0182 18.8913 20.3298 18.8913C19.6413 18.8913 18.9811 18.6156 18.4943 18.1249C18.0075 17.6343 17.734 16.9688 17.734 16.2749V8.85889H14.7578V16.2749C14.7578 17.763 15.3443 19.1901 16.3882 20.2423C17.4322 21.2946 18.848 21.8857 20.3244 21.8857C21.8007 21.8857 23.2166 21.2946 24.2606 20.2423C25.3045 19.1901 25.891 17.763 25.891 16.2749V8.85889H22.9255V16.2749Z" fill="#33475B"/>
<path d="M44.9771 9.62276C44.9771 8.10268 45.9748 7.62078 47.0679 7.62078C47.9487 7.62078 49.1125 8.29637 49.8734 9.11606L51.8228 6.80108C50.8496 5.47469 48.8757 4.55737 47.26 4.55737C44.0317 4.55737 41.6965 6.46328 41.6965 9.62276C41.6965 15.4846 48.805 13.6252 48.805 16.9055C48.805 17.9173 47.8304 18.8114 46.7143 18.8114C44.9541 18.8114 44.3837 17.9437 43.5751 17.0264L41.4121 19.2933C42.7957 21.0055 44.5021 21.8748 46.5467 21.8748C49.6136 21.8748 52.081 19.9457 52.081 16.9303C52.081 10.4223 44.9725 12.4444 44.9725 9.62276" fill="#33475B"/>
<path d="M88.9528 19.1059C87.1941 19.1059 86.6945 18.3389 86.6945 17.1644V11.9657H89.4278V9.33153H86.6945V5.85596L83.6768 7.22108V17.8105C83.6768 20.5191 85.5307 21.8842 88.0734 21.8842C88.4722 21.8915 88.8708 21.8593 89.2633 21.7881L89.9997 19.0563C89.6676 19.0796 89.2864 19.1028 88.9528 19.1028" fill="#33475B"/>
<path d="M34.2546 8.94556C32.7803 8.94556 31.7518 9.37632 30.7572 10.3603V4.66113H27.7764V15.2242C27.7764 19.1786 30.6127 21.8871 33.7995 21.8871C37.3353 21.8871 40.4453 19.1305 40.4453 15.4179C40.4453 11.7517 37.5828 8.9471 34.2546 8.9471V8.94556ZM34.2361 18.864C33.5672 18.864 32.9133 18.6641 32.3571 18.2895C31.801 17.9149 31.3675 17.3825 31.1115 16.7596C30.8555 16.1367 30.7885 15.4513 30.919 14.79C31.0495 14.1288 31.3716 13.5214 31.8446 13.0446C32.3176 12.5679 32.9203 12.2432 33.5763 12.1116C34.2324 11.9801 34.9124 12.0476 35.5304 12.3056C36.1484 12.5636 36.6766 13.0006 37.0482 13.5612C37.4198 14.1218 37.6182 14.7809 37.6182 15.4551C37.6182 16.3592 37.2619 17.2263 36.6276 17.8656C35.9933 18.5049 35.1331 18.864 34.2361 18.864Z" fill="#33475B"/>
<path d="M66.6201 15.26C66.6201 11.5412 63.5163 8.79077 59.9743 8.79077C56.7875 8.79077 53.9512 11.4993 53.9512 15.4537V26.023H56.932V20.3161C57.9251 21.2985 58.9551 21.7308 60.4278 21.7308C63.7561 21.7308 66.6186 18.9277 66.6186 15.26H66.6201ZM63.7976 15.2228C63.7976 15.8971 63.5992 16.5561 63.2276 17.1167C62.856 17.6773 62.3278 18.1143 61.7098 18.3723C61.0918 18.6303 60.4118 18.6978 59.7557 18.5663C59.0997 18.4347 58.497 18.1101 58.0241 17.6333C57.5511 17.1566 57.2289 16.5491 57.0985 15.8879C56.968 15.2266 57.0349 14.5412 57.2909 13.9183C57.5469 13.2954 57.9804 12.763 58.5366 12.3884C59.0927 12.0138 59.7466 11.8139 60.4155 11.8139C61.3125 11.8139 62.1728 12.173 62.807 12.8123C63.4413 13.4516 63.7976 14.3187 63.7976 15.2228Z" fill="#33475B"/>
<path d="M76.2507 8.64503V5.62656C76.6464 5.44018 76.9815 5.14432 77.2169 4.77344C77.4523 4.40256 77.5784 3.9719 77.5804 3.53161V3.46189C77.5804 2.84545 77.3375 2.25426 76.905 1.81837C76.4726 1.38248 75.886 1.13761 75.2745 1.13761H75.2053C74.5937 1.13761 74.0072 1.38248 73.5747 1.81837C73.1423 2.25426 72.8993 2.84545 72.8993 3.46189V3.53161C72.9014 3.9719 73.0274 4.40256 73.2628 4.77344C73.4983 5.14432 73.8333 5.44018 74.2291 5.62656V8.64503C73.0917 8.82043 72.0204 9.29564 71.1237 10.0226L62.9115 3.575C62.9696 3.36238 63.0006 3.14317 63.0037 2.92265C63.0046 2.40466 62.8531 1.89803 62.5683 1.46685C62.2835 1.03566 61.8783 0.699293 61.4038 0.500287C60.9293 0.301281 60.407 0.248578 59.9028 0.348844C59.3986 0.449111 58.9352 0.697842 58.5713 1.06358C58.2074 1.42931 57.9592 1.89562 57.8583 2.40351C57.7573 2.91141 57.808 3.43808 58.0041 3.91691C58.2001 4.39574 58.5326 4.80521 58.9596 5.09353C59.3865 5.38186 59.8887 5.53608 60.4026 5.53669C60.852 5.53467 61.293 5.41392 61.6816 5.1865L69.7694 11.5287C69.0427 12.635 68.6635 13.9364 68.6813 15.2631C68.6991 16.5898 69.1131 17.8803 69.8693 18.9664L67.4096 21.4456C67.2107 21.3816 67.0035 21.3476 66.7947 21.3449C66.3728 21.3452 65.9605 21.4716 65.6098 21.708C65.2591 21.9444 64.9859 22.2804 64.8246 22.6733C64.6633 23.0662 64.6212 23.4985 64.7035 23.9156C64.7859 24.3327 64.9891 24.7157 65.2874 25.0164C65.5857 25.3171 65.9658 25.5219 66.3796 25.605C66.7933 25.688 67.2223 25.6455 67.6121 25.4829C68.0019 25.3204 68.3352 25.0449 68.5698 24.6915C68.8043 24.338 68.9297 23.9224 68.93 23.4972C68.9274 23.2867 68.8937 23.0778 68.8301 22.8774L71.2636 20.4245C72.0572 21.04 72.9799 21.4642 73.9612 21.6648C74.9426 21.8654 75.9564 21.8369 76.9251 21.5815C77.8938 21.3262 78.7917 20.8507 79.55 20.1916C80.3082 19.5325 80.9068 18.7073 81.2998 17.779C81.6928 16.8507 81.8698 15.8441 81.8172 14.8363C81.7647 13.8284 81.484 12.8461 80.9966 11.9645C80.5093 11.0828 79.8282 10.3253 79.0056 9.74995C78.183 9.17459 77.2406 8.79663 76.2507 8.64503ZM75.2422 18.5713C74.5765 18.5706 73.926 18.3711 73.3727 17.998C72.8195 17.6248 72.3885 17.0947 72.1341 16.4746C71.8797 15.8546 71.8134 15.1725 71.9435 14.5144C72.0736 13.8564 72.3944 13.2521 72.8652 12.7777C73.336 12.3034 73.9357 11.9804 74.5886 11.8495C75.2415 11.7187 75.9182 11.7858 76.5333 12.0425C77.1483 12.2992 77.674 12.7339 78.044 13.2917C78.414 13.8495 78.6117 14.5053 78.612 15.1763C78.612 16.0763 78.2573 16.9394 77.6259 17.5758C76.9945 18.2122 76.1382 18.5697 75.2453 18.5697" fill="#FF7A59"/>
</g>
<defs>
<clipPath id="clip0_32_844">
<rect width="90" height="25.7143" fill="white" transform="translate(0 0.300781)"/>
</clipPath>
</defs>
</svg>
