<svg width="35" height="35" viewBox="0 0 35 35" fill="none" xmlns="http://www.w3.org/2000/svg">
<path d="M8.16699 14H12.3413V26.8333H8.16699V14ZM23.7117 14.1505C23.6673 14.1365 23.6253 14.1213 23.5787 14.1085C23.5226 14.0958 23.4662 14.0849 23.4095 14.0758C23.163 14.0254 22.9121 14 22.6605 14C20.2268 14 18.6833 15.7698 18.1747 16.4535V14H14.0003V26.8333H18.1747V19.8333C18.1747 19.8333 21.3293 15.4397 22.6605 18.6667V26.8333H26.8337V18.1732C26.8319 17.2517 26.5245 16.3568 25.9595 15.6288C25.3945 14.9008 24.6039 14.3809 23.7117 14.1505Z" fill="#1976D2"/>
<path d="M10.2087 12.2503C11.3362 12.2503 12.2503 11.3362 12.2503 10.2087C12.2503 9.08108 11.3362 8.16699 10.2087 8.16699C9.08108 8.16699 8.16699 9.08108 8.16699 10.2087C8.16699 11.3362 9.08108 12.2503 10.2087 12.2503Z" fill="#1976D2"/>
</svg>
