<svg width="90" height="20" viewBox="0 0 90 20" fill="none" xmlns="http://www.w3.org/2000/svg">
<g clip-path="url(#clip0_32_842)">
<path d="M31.7683 11.6149L31.2319 13.1314H31.1872C31.0978 12.7895 30.9339 12.2691 30.6657 11.6446L27.7899 4.43339H24.9736V15.9267H26.8362V8.83446C26.8362 8.38841 26.8362 7.88288 26.8213 7.2584C26.8064 6.94616 26.7766 6.70827 26.7617 6.52985H26.8064C26.8958 6.9759 27.0001 7.30301 27.0746 7.51117L30.5316 15.897H31.8428L35.27 7.43682C35.3445 7.24353 35.419 6.85695 35.4935 6.52985H35.5382C35.4935 7.37735 35.4637 8.13564 35.4488 8.59656V15.8821H37.4306V4.40366H34.7187L31.7683 11.6149ZM39.3081 7.64498H41.2452V15.8821H39.3081V7.64498ZM40.2915 4.16576C39.9637 4.16576 39.6955 4.28471 39.472 4.49287C39.2485 4.70102 39.1293 4.96866 39.1293 5.29576C39.1293 5.608 39.2485 5.87563 39.472 6.08379C39.6955 6.29195 39.9637 6.39603 40.2915 6.39603C40.6193 6.39603 40.9024 6.27708 41.111 6.08379C41.3346 5.87563 41.4538 5.608 41.4538 5.29576C41.4538 4.98353 41.3346 4.71589 41.111 4.49287C40.9173 4.28471 40.6342 4.16576 40.2915 4.16576ZM48.1144 7.57064C47.7567 7.4963 47.3842 7.45169 47.0266 7.45169C46.1475 7.45169 45.3428 7.64498 44.6723 8.03156C44.0018 8.41814 43.4654 8.95341 43.1226 9.62249C42.765 10.3064 42.5862 11.0945 42.5862 12.0014C42.5862 12.7895 42.765 13.4883 43.1077 14.1276C43.4505 14.7521 43.9273 15.2576 44.568 15.5996C45.1789 15.9416 45.8942 16.12 46.6988 16.12C47.6226 16.12 48.4124 15.9267 49.0382 15.5699L49.0531 15.555V13.7708L48.9786 13.8303C48.6955 14.0384 48.3677 14.2168 48.0399 14.3209C47.6971 14.4399 47.3842 14.4993 47.116 14.4993C46.3412 14.4993 45.7303 14.2763 45.2981 13.7857C44.8511 13.3099 44.6276 12.6557 44.6276 11.8379C44.6276 10.9904 44.8511 10.3213 45.313 9.83065C45.775 9.33999 46.3859 9.08722 47.1309 9.08722C47.7567 9.08722 48.3975 9.29538 48.9786 9.7117L49.0531 9.77117V7.88288L49.0382 7.86801C48.7849 7.76393 48.5018 7.64498 48.1144 7.57064ZM54.5067 7.51117C54.0299 7.51117 53.5829 7.65985 53.1955 7.97209C52.8677 8.23972 52.6442 8.6263 52.4505 9.08722H52.4356V7.64498H50.4985V15.8821H52.4356V11.6743C52.4356 10.9607 52.5846 10.3659 52.9124 9.93473C53.2402 9.48867 53.6574 9.26565 54.164 9.26565C54.3428 9.26565 54.5216 9.31025 54.7452 9.33999C54.9538 9.39946 55.1028 9.45894 55.2071 9.53328L55.2816 9.59275V7.65985L55.2369 7.64498C55.1028 7.55577 54.8346 7.51117 54.5067 7.51117ZM59.7816 7.46656C58.4256 7.46656 57.3379 7.86801 56.5779 8.65604C55.8031 9.44407 55.4306 10.5295 55.4306 11.8974C55.4306 13.1761 55.818 14.2168 56.563 14.9751C57.3081 15.7186 58.3213 16.1051 59.5879 16.1051C60.914 16.1051 61.972 15.7037 62.7319 14.9008C63.5067 14.0979 63.8793 13.0274 63.8793 11.7041C63.8793 10.3956 63.5216 9.35486 62.7915 8.59656C62.0912 7.83827 61.063 7.46656 59.7816 7.46656ZM61.3312 13.8005C60.9736 14.2615 60.4074 14.4845 59.7071 14.4845C59.0067 14.4845 58.4405 14.2615 58.0382 13.7708C57.6359 13.3099 57.4422 12.6408 57.4422 11.7933C57.4422 10.916 57.6508 10.247 58.0382 9.77117C58.4405 9.29538 58.9918 9.05749 59.6922 9.05749C60.3776 9.05749 60.914 9.28051 61.3014 9.74144C61.6889 10.2024 61.8975 10.8714 61.8975 11.7487C61.8677 12.6408 61.7038 13.3396 61.3312 13.8005ZM68.2005 11.0647C67.5895 10.812 67.2021 10.6187 67.0233 10.4551C66.8743 10.3064 66.7998 10.0983 66.7998 9.83065C66.7998 9.60762 66.8892 9.38459 67.1127 9.23591C67.3362 9.08722 67.5895 9.01288 67.962 9.01288C68.2899 9.01288 68.6326 9.07236 68.9604 9.16157C69.2882 9.25078 69.5862 9.38459 69.8246 9.56302L69.8991 9.62249V7.80854L69.8544 7.79367C69.6309 7.70446 69.3329 7.61525 68.9753 7.5409C68.6177 7.48143 68.2899 7.45169 68.0216 7.45169C67.0978 7.45169 66.3379 7.67472 65.7418 8.16538C65.1458 8.6263 64.8627 9.25078 64.8627 9.97933C64.8627 10.3659 64.9223 10.7079 65.0564 10.9904C65.1905 11.2729 65.3842 11.5405 65.6524 11.7635C65.9207 11.9717 66.3081 12.2096 66.8445 12.4326C67.2915 12.6259 67.6342 12.7746 67.8428 12.8936C68.0514 13.0125 68.1856 13.1463 68.2899 13.2504C68.3644 13.3693 68.4091 13.518 68.4091 13.7113C68.4091 14.2615 67.9918 14.5291 67.1425 14.5291C66.8147 14.5291 66.472 14.4696 66.0697 14.3358C65.6673 14.202 65.2948 14.0087 64.9819 13.7857L64.9074 13.7262V15.6145L64.9521 15.6294C65.2352 15.7632 65.5779 15.8524 65.9952 15.9565C66.4124 16.0308 66.7849 16.0903 67.1127 16.0903C68.111 16.0903 68.9306 15.8672 69.5117 15.3766C70.1077 14.9008 70.4207 14.2912 70.4207 13.5032C70.4207 12.953 70.2716 12.4624 69.9438 12.0907C69.5117 11.7338 68.9753 11.3621 68.2005 11.0647ZM75.5316 7.46656C74.1756 7.46656 73.0879 7.86801 72.3279 8.65604C71.568 9.44407 71.1806 10.5295 71.1806 11.8974C71.1806 13.1761 71.568 14.2168 72.313 14.9751C73.0581 15.7186 74.0713 16.1051 75.3379 16.1051C76.664 16.1051 77.722 15.7037 78.4819 14.9008C79.2567 14.0979 79.6293 13.0274 79.6293 11.7041C79.6293 10.3956 79.2716 9.35486 78.5415 8.59656C77.8412 7.83827 76.813 7.46656 75.5316 7.46656ZM77.0663 13.8005C76.7087 14.2615 76.1425 14.4845 75.4422 14.4845C74.7269 14.4845 74.1756 14.2615 73.7733 13.7708C73.371 13.3099 73.1773 12.6408 73.1773 11.7933C73.1773 10.916 73.3859 10.247 73.7733 9.77117C74.1756 9.29538 74.7269 9.05749 75.4273 9.05749C76.0978 9.05749 76.6491 9.28051 77.0365 9.74144C77.424 10.2024 77.6326 10.8714 77.6326 11.7487C77.6326 12.6408 77.4389 13.3396 77.0663 13.8005ZM89.9852 9.23591V7.64498H88.0332V5.20655L87.9736 5.22142L86.1259 5.77155L86.0812 5.78642V7.64498H83.1607V6.60419C83.1607 6.1284 83.2799 5.75669 83.4885 5.51879C83.6971 5.28089 84.0101 5.16195 84.3975 5.16195C84.6657 5.16195 84.9488 5.22142 85.2617 5.35524L85.3362 5.39984V3.71971L85.2915 3.70484C85.0233 3.61563 84.6657 3.55615 84.2038 3.55615C83.6226 3.55615 83.116 3.68997 82.6541 3.913C82.1922 4.16576 81.8495 4.50773 81.5961 4.96866C81.3428 5.41471 81.2087 5.92024 81.2087 6.50011V7.64498H79.8528V9.22104H81.2087V15.8821H83.1607V9.23591H86.0812V13.4734C86.0812 15.213 86.9008 16.0903 88.5399 16.0903C88.8081 16.0903 89.0912 16.0457 89.3594 16.0011C89.6425 15.9416 89.8511 15.8672 89.9703 15.8078L89.9852 15.7929V14.202L89.9107 14.2615C89.7915 14.3358 89.6872 14.3953 89.5084 14.4399C89.3594 14.4845 89.2253 14.4993 89.121 14.4993C88.7336 14.4993 88.4654 14.4101 88.2716 14.1871C88.0928 13.979 88.0034 13.637 88.0034 13.1314V9.23591H89.9852Z" fill="#737373"/>
<path d="M0 0.567627H9.13411V9.682H0V0.567627Z" fill="#F25022"/>
<path d="M10.0879 0.567627H19.222V9.682H10.0879V0.567627Z" fill="#7FBA00"/>
<path d="M0 10.6335H9.13411V19.7479H0V10.6335Z" fill="#00A4EF"/>
<path d="M10.0879 10.6335H19.222V19.7479H10.0879V10.6335Z" fill="#FFB900"/>
</g>
<defs>
<clipPath id="clip0_32_842">
<rect width="90" height="19.1803" fill="white" transform="translate(0 0.567627)"/>
</clipPath>
</defs>
</svg>
