<svg width="11" height="11" viewBox="0 0 11 11" fill="none" xmlns="http://www.w3.org/2000/svg">
<path d="M9.92222 7.50125L8.36686 7.32367C8.18398 7.30219 7.9986 7.32244 7.82467 7.38289C7.65073 7.44334 7.49276 7.54243 7.36262 7.67271L6.23591 8.79943C4.49771 7.91516 3.08483 6.50227 2.20056 4.76406L3.3334 3.63122C3.59671 3.36791 3.7253 3.0005 3.68243 2.62697L3.50485 1.08386C3.47027 0.785085 3.32695 0.509488 3.10222 0.3096C2.87748 0.109712 2.58706 -0.000489921 2.28629 1.63739e-06H1.22694C0.534989 1.63739e-06 -0.0406146 0.575608 0.00224943 1.26756C0.326792 6.497 4.5091 10.6732 9.73239 10.9978C10.4243 11.0406 10.9999 10.465 10.9999 9.77306V8.7137C11.0061 8.09523 10.5407 7.57473 9.92222 7.50125Z" fill="#15375C"/>
</svg>
