<svg width="35" height="35" viewBox="0 0 35 35" fill="none" xmlns="http://www.w3.org/2000/svg">
<path d="M19.2943 7.5C14.6147 7.5 10 10.5848 10 15.5654C10 18.7305 11.8036 20.546 12.8923 20.546C13.3473 20.546 13.6072 19.3089 13.6072 18.9554C13.6072 18.5377 12.5348 17.638 12.5348 15.9028C12.5348 12.2718 15.3296 9.71718 18.9369 9.71718C22.0404 9.71718 24.3315 11.4684 24.3315 14.6657C24.3315 17.0596 23.3565 21.5422 20.2205 21.5422C19.0831 21.5422 18.1082 20.7388 18.1082 19.566C18.1082 17.8629 19.3106 16.2081 19.3106 14.4568C19.3106 11.4684 15.0371 12.0147 15.0371 15.6136C15.0371 16.3687 15.1346 17.2042 15.4759 17.8951C14.8422 20.5782 13.5585 24.5627 13.5585 27.3261C13.5585 28.1776 13.6885 29.0131 13.7697 29.8646C13.9322 30.0414 13.851 30.0253 14.0785 29.9289C16.3695 26.812 16.2883 26.2175 17.3282 22.1366C17.8969 23.197 19.3431 23.7593 20.4805 23.7593C25.3227 23.7593 27.5 19.1 27.5 14.8906C27.5 10.408 23.584 7.5 19.2943 7.5Z" fill="#CB1F27"/>
</svg>
