<svg width="18" height="18" viewBox="0 0 18 18" fill="none" xmlns="http://www.w3.org/2000/svg">
<g clip-path="url(#clip0_62_1155)">
<path d="M0 13.5C0 14.0304 0.210714 14.5391 0.585786 14.9142C0.960859 15.2893 1.46957 15.5 2 15.5H16C16.5304 15.5 17.0391 15.2893 17.4142 14.9142C17.7893 14.5391 18 14.0304 18 13.5V11H0V13.5Z" fill="#138808"/>
<path d="M18 7V4.5C18 3.96957 17.7893 3.46086 17.4142 3.08579C17.0391 2.71071 16.5304 2.5 16 2.5H2C1.46957 2.5 0.960859 2.71071 0.585786 3.08579C0.210714 3.46086 0 3.96957 0 4.5L0 7H18Z" fill="#FF9933"/>
<path d="M0 6.8335H18V11.167H0V6.8335Z" fill="#F7F7F7"/>
<path d="M9 11C10.1046 11 11 10.1046 11 9C11 7.89543 10.1046 7 9 7C7.89543 7 7 7.89543 7 9C7 10.1046 7.89543 11 9 11Z" fill="#000080"/>
<path d="M9 10.6875C9.93198 10.6875 10.6875 9.93198 10.6875 9C10.6875 8.06802 9.93198 7.3125 9 7.3125C8.06802 7.3125 7.3125 8.06802 7.3125 9C7.3125 9.93198 8.06802 10.6875 9 10.6875Z" fill="#F7F7F7"/>
<path d="M9.05039 8.3749L9.00039 8.6999L8.95039 8.3749L9.00039 7.3999L9.05039 8.3749ZM8.58639 7.4544L8.79039 8.4089L8.92289 8.7099L8.88689 8.3834L8.58639 7.4544ZM8.20039 7.6144L8.64439 8.4834L8.85039 8.7399L8.73139 8.4334L8.20039 7.6144ZM7.86889 7.8684L8.52289 8.5934L8.78839 8.7879L8.59389 8.5224L7.86889 7.8684ZM7.61489 8.1999L8.43389 8.7309L8.74039 8.8499L8.48389 8.6439L7.61489 8.1999ZM7.45489 8.5859L8.38389 8.8864L8.71039 8.9224L8.40939 8.7899L7.45489 8.5859ZM7.40039 8.9999L8.37539 9.0499L8.70039 8.9999L8.37539 8.9499L7.40039 8.9999ZM7.45489 9.4139L8.40939 9.2099L8.71039 9.0774L8.38389 9.1134L7.45489 9.4139ZM7.61489 9.7999L8.48389 9.3559L8.74039 9.1499L8.43389 9.2689L7.61489 9.7999ZM7.86889 10.1314L8.59389 9.4774L8.78839 9.2119L8.52289 9.4064L7.86889 10.1314ZM8.20039 10.3854L8.73139 9.5664L8.85039 9.2599L8.64439 9.5164L8.20039 10.3854ZM8.58639 10.5454L8.88689 9.6164L8.92289 9.2899L8.79039 9.5909L8.58639 10.5454ZM9.00039 10.5999L9.05039 9.6249L9.00039 9.2999L8.95039 9.6249L9.00039 10.5999ZM9.41439 10.5454L9.21039 9.5909L9.07789 9.2899L9.11389 9.6164L9.41439 10.5454ZM9.80039 10.3854L9.35639 9.5164L9.15039 9.2599L9.26939 9.5664L9.80039 10.3854ZM10.1319 10.1314L9.47789 9.4064L9.21239 9.2119L9.40689 9.4774L10.1319 10.1314ZM10.3859 9.7999L9.56689 9.2689L9.26039 9.1499L9.51689 9.3559L10.3859 9.7999ZM10.5459 9.4139L9.61689 9.1134L9.29039 9.0774L9.59139 9.2099L10.5459 9.4139ZM10.6004 8.9999L9.62539 8.9499L9.30039 8.9999L9.62539 9.0499L10.6004 8.9999ZM10.5459 8.5859L9.59139 8.7899L9.29039 8.9224L9.61689 8.8864L10.5459 8.5859ZM10.3859 8.1999L9.51689 8.6439L9.26039 8.8499L9.56689 8.7309L10.3859 8.1999ZM10.1319 7.8684L9.40689 8.5224L9.21239 8.7879L9.47789 8.5934L10.1319 7.8684ZM9.80039 7.6144L9.26939 8.4334L9.15039 8.7399L9.35639 8.4834L9.80039 7.6144ZM9.41439 7.4544L9.11389 8.3834L9.07789 8.7099L9.21039 8.4089L9.41439 7.4544Z" fill="#6666B3"/>
<path d="M8.77969 7.42949C8.83492 7.42949 8.87969 7.38472 8.87969 7.32949C8.87969 7.27426 8.83492 7.22949 8.77969 7.22949C8.72446 7.22949 8.67969 7.27426 8.67969 7.32949C8.67969 7.38472 8.72446 7.42949 8.77969 7.42949Z" fill="#000080"/>
<path d="M8.35488 7.54326C8.41011 7.54326 8.45488 7.49849 8.45488 7.44326C8.45488 7.38803 8.41011 7.34326 8.35488 7.34326C8.29965 7.34326 8.25488 7.38803 8.25488 7.44326C8.25488 7.49849 8.29965 7.54326 8.35488 7.54326Z" fill="#000080"/>
<path d="M7.97402 7.76299C8.02925 7.76299 8.07402 7.71822 8.07402 7.66299C8.07402 7.60776 8.02925 7.56299 7.97402 7.56299C7.91879 7.56299 7.87402 7.60776 7.87402 7.66299C7.87402 7.71822 7.91879 7.76299 7.97402 7.76299Z" fill="#000080"/>
<path d="M7.66348 8.07402C7.7187 8.07402 7.76348 8.02925 7.76348 7.97402C7.76348 7.91879 7.7187 7.87402 7.66348 7.87402C7.60825 7.87402 7.56348 7.91879 7.56348 7.97402C7.56348 8.02925 7.60825 8.07402 7.66348 8.07402Z" fill="#000080"/>
<path d="M7.44375 8.45488C7.49898 8.45488 7.54375 8.41011 7.54375 8.35488C7.54375 8.29965 7.49898 8.25488 7.44375 8.25488C7.38852 8.25488 7.34375 8.29965 7.34375 8.35488C7.34375 8.41011 7.38852 8.45488 7.44375 8.45488Z" fill="#000080"/>
<path d="M7.32949 8.88018C7.38472 8.88018 7.42949 8.8354 7.42949 8.78018C7.42949 8.72495 7.38472 8.68018 7.32949 8.68018C7.27426 8.68018 7.22949 8.72495 7.22949 8.78018C7.22949 8.8354 7.27426 8.88018 7.32949 8.88018Z" fill="#000080"/>
<path d="M7.32949 9.32012C7.38472 9.32012 7.42949 9.27535 7.42949 9.22012C7.42949 9.16489 7.38472 9.12012 7.32949 9.12012C7.27426 9.12012 7.22949 9.16489 7.22949 9.22012C7.22949 9.27535 7.27426 9.32012 7.32949 9.32012Z" fill="#000080"/>
<path d="M7.44375 9.74492C7.49898 9.74492 7.54375 9.70015 7.54375 9.64492C7.54375 9.58969 7.49898 9.54492 7.44375 9.54492C7.38852 9.54492 7.34375 9.58969 7.34375 9.64492C7.34375 9.70015 7.38852 9.74492 7.44375 9.74492Z" fill="#000080"/>
<path d="M7.66348 10.1258C7.7187 10.1258 7.76348 10.081 7.76348 10.0258C7.76348 9.97055 7.7187 9.92578 7.66348 9.92578C7.60825 9.92578 7.56348 9.97055 7.56348 10.0258C7.56348 10.081 7.60825 10.1258 7.66348 10.1258Z" fill="#000080"/>
<path d="M7.97402 10.4368C8.02925 10.4368 8.07402 10.392 8.07402 10.3368C8.07402 10.2816 8.02925 10.2368 7.97402 10.2368C7.91879 10.2368 7.87402 10.2816 7.87402 10.3368C7.87402 10.392 7.91879 10.4368 7.97402 10.4368Z" fill="#000080"/>
<path d="M8.35488 10.6565C8.41011 10.6565 8.45488 10.6118 8.45488 10.5565C8.45488 10.5013 8.41011 10.4565 8.35488 10.4565C8.29965 10.4565 8.25488 10.5013 8.25488 10.5565C8.25488 10.6118 8.29965 10.6565 8.35488 10.6565Z" fill="#000080"/>
<path d="M8.77969 10.7703C8.83492 10.7703 8.87969 10.7255 8.87969 10.6703C8.87969 10.6151 8.83492 10.5703 8.77969 10.5703C8.72446 10.5703 8.67969 10.6151 8.67969 10.6703C8.67969 10.7255 8.72446 10.7703 8.77969 10.7703Z" fill="#000080"/>
<path d="M9.22012 10.7703C9.27535 10.7703 9.32012 10.7255 9.32012 10.6703C9.32012 10.6151 9.27535 10.5703 9.22012 10.5703C9.16489 10.5703 9.12012 10.6151 9.12012 10.6703C9.12012 10.7255 9.16489 10.7703 9.22012 10.7703Z" fill="#000080"/>
<path d="M9.64492 10.6565C9.70015 10.6565 9.74492 10.6118 9.74492 10.5565C9.74492 10.5013 9.70015 10.4565 9.64492 10.4565C9.58969 10.4565 9.54492 10.5013 9.54492 10.5565C9.54492 10.6118 9.58969 10.6565 9.64492 10.6565Z" fill="#000080"/>
<path d="M10.0258 10.4368C10.081 10.4368 10.1258 10.392 10.1258 10.3368C10.1258 10.2816 10.081 10.2368 10.0258 10.2368C9.97055 10.2368 9.92578 10.2816 9.92578 10.3368C9.92578 10.392 9.97055 10.4368 10.0258 10.4368Z" fill="#000080"/>
<path d="M10.3373 10.1258C10.3925 10.1258 10.4373 10.081 10.4373 10.0258C10.4373 9.97055 10.3925 9.92578 10.3373 9.92578C10.2821 9.92578 10.2373 9.97055 10.2373 10.0258C10.2373 10.081 10.2821 10.1258 10.3373 10.1258Z" fill="#000080"/>
<path d="M10.5561 9.74492C10.6113 9.74492 10.6561 9.70015 10.6561 9.64492C10.6561 9.58969 10.6113 9.54492 10.5561 9.54492C10.5008 9.54492 10.4561 9.58969 10.4561 9.64492C10.4561 9.70015 10.5008 9.74492 10.5561 9.74492Z" fill="#000080"/>
<path d="M10.6703 9.32012C10.7255 9.32012 10.7703 9.27535 10.7703 9.22012C10.7703 9.16489 10.7255 9.12012 10.6703 9.12012C10.6151 9.12012 10.5703 9.16489 10.5703 9.22012C10.5703 9.27535 10.6151 9.32012 10.6703 9.32012Z" fill="#000080"/>
<path d="M10.6703 8.88018C10.7255 8.88018 10.7703 8.8354 10.7703 8.78018C10.7703 8.72495 10.7255 8.68018 10.6703 8.68018C10.6151 8.68018 10.5703 8.72495 10.5703 8.78018C10.5703 8.8354 10.6151 8.88018 10.6703 8.88018Z" fill="#000080"/>
<path d="M10.5561 8.45488C10.6113 8.45488 10.6561 8.41011 10.6561 8.35488C10.6561 8.29965 10.6113 8.25488 10.5561 8.25488C10.5008 8.25488 10.4561 8.29965 10.4561 8.35488C10.4561 8.41011 10.5008 8.45488 10.5561 8.45488Z" fill="#000080"/>
<path d="M10.3373 8.07402C10.3925 8.07402 10.4373 8.02925 10.4373 7.97402C10.4373 7.91879 10.3925 7.87402 10.3373 7.87402C10.2821 7.87402 10.2373 7.91879 10.2373 7.97402C10.2373 8.02925 10.2821 8.07402 10.3373 8.07402Z" fill="#000080"/>
<path d="M10.0258 7.76299C10.081 7.76299 10.1258 7.71822 10.1258 7.66299C10.1258 7.60776 10.081 7.56299 10.0258 7.56299C9.97055 7.56299 9.92578 7.60776 9.92578 7.66299C9.92578 7.71822 9.97055 7.76299 10.0258 7.76299Z" fill="#000080"/>
<path d="M9.64492 7.54326C9.70015 7.54326 9.74492 7.49849 9.74492 7.44326C9.74492 7.38803 9.70015 7.34326 9.64492 7.34326C9.58969 7.34326 9.54492 7.38803 9.54492 7.44326C9.54492 7.49849 9.58969 7.54326 9.64492 7.54326Z" fill="#000080"/>
<path d="M9.22012 7.42949C9.27535 7.42949 9.32012 7.38472 9.32012 7.32949C9.32012 7.27426 9.27535 7.22949 9.22012 7.22949C9.16489 7.22949 9.12012 7.27426 9.12012 7.32949C9.12012 7.38472 9.16489 7.42949 9.22012 7.42949Z" fill="#000080"/>
<path d="M8.9998 9.4498C9.24833 9.4498 9.4498 9.24833 9.4498 8.9998C9.4498 8.75128 9.24833 8.5498 8.9998 8.5498C8.75128 8.5498 8.5498 8.75128 8.5498 8.9998C8.5498 9.24833 8.75128 9.4498 8.9998 9.4498Z" fill="#000080"/>
</g>
<defs>
<clipPath id="clip0_62_1155">
<rect width="18" height="18" fill="white"/>
</clipPath>
</defs>
</svg>
