<svg width="20" height="16" viewBox="0 0 20 16" fill="none" xmlns="http://www.w3.org/2000/svg">
<g clip-path="url(#clip0_62_1188)">
<path d="M19.3337 0.799805H0.666992V1.9078H19.3337V0.799805Z" fill="#B22234"/>
<path d="M19.3337 1.9082H0.666992V3.0162H19.3337V1.9082Z" fill="white"/>
<path d="M19.3337 3.01611H0.666992V4.12411H19.3337V3.01611Z" fill="#B22234"/>
<path d="M19.3337 4.12402H0.666992V5.23202H19.3337V4.12402Z" fill="white"/>
<path d="M19.3337 5.23193H0.666992V6.33993H19.3337V5.23193Z" fill="#B22234"/>
<path d="M19.3337 6.33984H0.666992V7.44784H19.3337V6.33984Z" fill="white"/>
<path d="M19.3337 7.44824H0.666992V8.55624H19.3337V7.44824Z" fill="#B22234"/>
<path d="M19.3337 8.55566H0.666992V9.66366H19.3337V8.55566Z" fill="white"/>
<path d="M19.3337 9.66406H0.666992V10.7721H19.3337V9.66406Z" fill="#B22234"/>
<path d="M19.3337 10.7725H0.666992V11.8805H19.3337V10.7725Z" fill="white"/>
<path d="M19.3337 11.8799H0.666992V12.9879H19.3337V11.8799Z" fill="#B22234"/>
<path d="M19.3337 12.9883H0.666992V14.0963H19.3337V12.9883Z" fill="white"/>
<path d="M10.0003 0.799805H0.666992V8.5558H10.0003V0.799805Z" fill="#3C3B6E"/>
<path d="M1.66707 1.99042L1.45041 2.17842L1.53241 1.87282L1.31641 1.67922H1.58374L1.66707 1.37842L1.75041 1.67922H2.01774L1.80174 1.87282L1.88374 2.17842L1.66707 1.99042Z" fill="white"/>
<path d="M3.13289 1.99042L2.91623 2.17842L2.99823 1.87282L2.78223 1.67922H3.04956L3.13289 1.37842L3.21623 1.67922H3.48356L3.26756 1.87282L3.34956 2.17842L3.13289 1.99042Z" fill="white"/>
<path d="M4.59969 1.99042L4.38302 2.17842L4.46502 1.87282L4.24902 1.67922H4.51636L4.59969 1.37842L4.68302 1.67922H4.95036L4.73436 1.87282L4.81636 2.17842L4.59969 1.99042Z" fill="white"/>
<path d="M6.06649 1.99042L5.84982 2.17842L5.93182 1.87282L5.71582 1.67922H5.98315L6.06649 1.37842L6.14982 1.67922H6.41715L6.20115 1.87282L6.28315 2.17842L6.06649 1.99042Z" fill="white"/>
<path d="M7.53328 1.99042L7.31662 2.17842L7.39862 1.87282L7.18262 1.67922H7.44995L7.53328 1.37842L7.61662 1.67922H7.88395L7.66795 1.87282L7.74995 2.17842L7.53328 1.99042Z" fill="white"/>
<path d="M9.00008 1.99042L8.78341 2.17842L8.86541 1.87282L8.64941 1.67922H8.91675L9.00008 1.37842L9.08341 1.67922H9.35075L9.13475 1.87282L9.21675 2.17842L9.00008 1.99042Z" fill="white"/>
<path d="M2.40047 2.95753L2.1838 3.14473L2.2658 2.83993L2.0498 2.64553H2.31714L2.40047 2.34473L2.4838 2.64553H2.75114L2.53514 2.83993L2.61714 3.14473L2.40047 2.95753Z" fill="white"/>
<path d="M3.86629 2.95753L3.64962 3.14473L3.73162 2.83993L3.51562 2.64553H3.78296L3.86629 2.34473L3.94962 2.64553H4.21696L4.00096 2.83993L4.08296 3.14473L3.86629 2.95753Z" fill="white"/>
<path d="M5.33309 2.95753L5.11642 3.14473L5.19842 2.83993L4.98242 2.64553H5.24976L5.33309 2.34473L5.41642 2.64553H5.68376L5.46775 2.83993L5.54976 3.14473L5.33309 2.95753Z" fill="white"/>
<path d="M6.79989 2.95753L6.58322 3.14473L6.66522 2.83993L6.44922 2.64553H6.71655L6.79989 2.34473L6.88322 2.64553H7.15055L6.93455 2.83993L7.01655 3.14473L6.79989 2.95753Z" fill="white"/>
<path d="M8.26668 2.95753L8.05002 3.14473L8.13202 2.83993L7.91602 2.64553H8.18335L8.26668 2.34473L8.35002 2.64553H8.61735L8.40135 2.83993L8.48335 3.14473L8.26668 2.95753Z" fill="white"/>
<path d="M1.66707 3.92401L1.45041 4.11201L1.53241 3.80641L1.31641 3.61201H1.58374L1.66707 3.31201L1.75041 3.61201H2.01774L1.80174 3.80641L1.88374 4.11201L1.66707 3.92401Z" fill="white"/>
<path d="M3.13387 3.92401L2.9172 4.11201L2.9992 3.80641L2.7832 3.61201H3.05054L3.13387 3.31201L3.2172 3.61201H3.48454L3.26854 3.80641L3.35054 4.11201L3.13387 3.92401Z" fill="white"/>
<path d="M4.60067 3.92401L4.384 4.11201L4.466 3.80641L4.25 3.61201H4.51733L4.60067 3.31201L4.684 3.61201H4.95133L4.73533 3.80641L4.81733 4.11201L4.60067 3.92401Z" fill="white"/>
<path d="M6.06746 3.92401L5.8508 4.11201L5.9328 3.80641L5.7168 3.61201H5.98413L6.06746 3.31201L6.1508 3.61201H6.41813L6.20213 3.80641L6.28413 4.11201L6.06746 3.92401Z" fill="white"/>
<path d="M7.53328 3.92401L7.31662 4.11201L7.39862 3.80641L7.18262 3.61201H7.44995L7.53328 3.31201L7.61662 3.61201H7.88395L7.66795 3.80641L7.74995 4.11201L7.53328 3.92401Z" fill="white"/>
<path d="M9.00008 3.92401L8.78341 4.11201L8.86541 3.80641L8.64941 3.61201H8.91675L9.00008 3.31201L9.08341 3.61201H9.35075L9.13475 3.80641L9.21675 4.11201L9.00008 3.92401Z" fill="white"/>
<path d="M2.40047 4.89032L2.1838 5.07832L2.2658 4.77272L2.0498 4.57912H2.31714L2.40047 4.27832L2.4838 4.57912H2.75114L2.53514 4.77272L2.61714 5.07832L2.40047 4.89032Z" fill="white"/>
<path d="M3.86727 4.89032L3.6506 5.07832L3.7326 4.77272L3.5166 4.57912H3.78393L3.86727 4.27832L3.9506 4.57912H4.21793L4.00193 4.77272L4.08393 5.07832L3.86727 4.89032Z" fill="white"/>
<path d="M5.33407 4.89032L5.1174 5.07832L5.1994 4.77272L4.9834 4.57912H5.25073L5.33407 4.27832L5.4174 4.57912H5.68473L5.46873 4.77272L5.55073 5.07832L5.33407 4.89032Z" fill="white"/>
<path d="M6.80086 4.89032L6.5842 5.07832L6.6662 4.77272L6.4502 4.57912H6.71753L6.80086 4.27832L6.8842 4.57912H7.15153L6.93553 4.77272L7.01753 5.07832L6.80086 4.89032Z" fill="white"/>
<path d="M8.26668 4.89032L8.05002 5.07832L8.13202 4.77272L7.91602 4.57912H8.18335L8.26668 4.27832L8.35002 4.57912H8.61735L8.40135 4.77272L8.48335 5.07832L8.26668 4.89032Z" fill="white"/>
<path d="M1.66707 5.85743L1.45041 6.04463L1.53241 5.73983L1.31641 5.54543H1.58374L1.66707 5.24463L1.75041 5.54543H2.01774L1.80174 5.73983L1.88374 6.04463L1.66707 5.85743Z" fill="white"/>
<path d="M3.13387 5.85743L2.9172 6.04463L2.9992 5.73983L2.7832 5.54543H3.05054L3.13387 5.24463L3.2172 5.54543H3.48454L3.26854 5.73983L3.35054 6.04463L3.13387 5.85743Z" fill="white"/>
<path d="M4.60067 5.85743L4.384 6.04463L4.466 5.73983L4.25 5.54543H4.51733L4.60067 5.24463L4.684 5.54543H4.95133L4.73533 5.73983L4.81733 6.04463L4.60067 5.85743Z" fill="white"/>
<path d="M6.06746 5.85743L5.8508 6.04463L5.9328 5.73983L5.7168 5.54543H5.98413L6.06746 5.24463L6.1508 5.54543H6.41813L6.20213 5.73983L6.28413 6.04463L6.06746 5.85743Z" fill="white"/>
<path d="M7.53328 5.85743L7.31662 6.04463L7.39862 5.73983L7.18262 5.54543H7.44995L7.53328 5.24463L7.61662 5.54543H7.88395L7.66795 5.73983L7.74995 6.04463L7.53328 5.85743Z" fill="white"/>
<path d="M9.00008 5.85743L8.78341 6.04463L8.86541 5.73983L8.64941 5.54543H8.91675L9.00008 5.24463L9.08341 5.54543H9.35075L9.13475 5.73983L9.21675 6.04463L9.00008 5.85743Z" fill="white"/>
<path d="M1.66707 7.79071L1.45041 7.97871L1.53241 7.67311L1.31641 7.47951H1.58374L1.66707 7.17871L1.75041 7.47951H2.01774L1.80174 7.67311L1.88374 7.97871L1.66707 7.79071Z" fill="white"/>
<path d="M3.13387 7.79071L2.9172 7.97871L2.9992 7.67311L2.7832 7.47951H3.05054L3.13387 7.17871L3.2172 7.47951H3.48454L3.26854 7.67311L3.35054 7.97871L3.13387 7.79071Z" fill="white"/>
<path d="M4.60067 7.79071L4.384 7.97871L4.466 7.67311L4.25 7.47951H4.51733L4.60067 7.17871L4.684 7.47951H4.95133L4.73533 7.67311L4.81733 7.97871L4.60067 7.79071Z" fill="white"/>
<path d="M6.06746 7.79071L5.8508 7.97871L5.9328 7.67311L5.7168 7.47951H5.98413L6.06746 7.17871L6.1508 7.47951H6.41813L6.20213 7.67311L6.28413 7.97871L6.06746 7.79071Z" fill="white"/>
<path d="M7.53328 7.79071L7.31662 7.97871L7.39862 7.67311L7.18262 7.47951H7.44995L7.53328 7.17871L7.61662 7.47951H7.88395L7.66795 7.67311L7.74995 7.97871L7.53328 7.79071Z" fill="white"/>
<path d="M9.00008 7.79071L8.78341 7.97871L8.86541 7.67311L8.64941 7.47951H8.91675L9.00008 7.17871L9.08341 7.47951H9.35075L9.13475 7.67311L9.21675 7.97871L9.00008 7.79071Z" fill="white"/>
<path d="M2.40047 6.82391L2.1838 7.01191L2.2658 6.70631L2.0498 6.51191H2.31714L2.40047 6.21191L2.4838 6.51191H2.75114L2.53514 6.70631L2.61714 7.01191L2.40047 6.82391Z" fill="white"/>
<path d="M3.86727 6.82391L3.6506 7.01191L3.7326 6.70631L3.5166 6.51191H3.78393L3.86727 6.21191L3.9506 6.51191H4.21793L4.00193 6.70631L4.08393 7.01191L3.86727 6.82391Z" fill="white"/>
<path d="M5.33407 6.82391L5.1174 7.01191L5.1994 6.70631L4.9834 6.51191H5.25073L5.33407 6.21191L5.4174 6.51191H5.68473L5.46873 6.70631L5.55073 7.01191L5.33407 6.82391Z" fill="white"/>
<path d="M6.80086 6.82391L6.5842 7.01191L6.6662 6.70631L6.4502 6.51191H6.71753L6.80086 6.21191L6.8842 6.51191H7.15153L6.93553 6.70631L7.01753 7.01191L6.80086 6.82391Z" fill="white"/>
<path d="M8.26668 6.82391L8.05002 7.01191L8.13202 6.70631L7.91602 6.51191H8.18335L8.26668 6.21191L8.35002 6.51191H8.61735L8.40135 6.70631L8.48335 7.01191L8.26668 6.82391Z" fill="white"/>
<path d="M19.3337 14.0957H0.666992V15.1997H19.3337V14.0957Z" fill="#B22234"/>
</g>
<defs>
<clipPath id="clip0_62_1188">
<rect width="20" height="16" rx="5" fill="white"/>
</clipPath>
</defs>
</svg>
