<svg width="61" height="66" viewBox="0 0 61 66" fill="none" xmlns="http://www.w3.org/2000/svg">
<path d="M29.6861 0.782303C29.8006 -0.260768 31.1995 -0.260768 31.3139 0.782303L32.2736 9.53272C33.5127 20.8319 41.7463 29.7404 52.1894 31.0811L60.2769 32.1193C61.241 32.2432 61.241 33.7568 60.2769 33.8807L52.1894 34.9189C41.7463 36.2596 33.5127 45.1681 32.2736 56.4672L31.3139 65.2176C31.1995 66.2608 29.8006 66.2608 29.6861 65.2176L28.7264 56.4672C27.4873 45.1681 19.2537 36.2596 8.81054 34.9189L0.723038 33.8807C-0.241013 33.7568 -0.241013 32.2432 0.723038 32.1193L8.81054 31.0811C19.2537 29.7404 27.4873 20.8319 28.7264 9.53272L29.6861 0.782303Z" fill="#4D749F"/>
</svg>
