<svg width="126" height="32" viewBox="0 0 126 32" fill="none" xmlns="http://www.w3.org/2000/svg">
<path d="M40.941 12.2884C40.941 10.0527 38.7669 7.67812 35.0046 7.67812C30.7798 7.67812 26.1387 10.7773 25.4294 16.9604C24.7047 23.2051 28.5903 25.9805 32.5068 25.9805C36.4232 25.9805 38.4739 24.454 40.5709 22.4187C38.7669 20.1521 36.4386 21.2006 35.9915 21.4319C35.498 21.6786 34.8659 22.0178 33.5707 22.0178C32.0596 22.0178 30.5177 21.3394 30.5177 18.5177C40.2009 17.5617 40.941 14.5242 40.941 12.2884ZM36.1456 12.6585C36.084 13.3523 35.8064 14.5396 30.9032 15.2026C31.9362 11.5329 33.9099 11.2553 34.8196 11.2553C35.6677 11.2553 36.2073 11.9184 36.1456 12.6585ZM19.7398 13.2598C19.7398 13.2598 17.6582 19.7975 17.4886 20.3372C17.4269 19.7821 15.9004 8.04818 15.9004 8.04818C12.3541 8.04818 10.4575 10.5769 9.45528 13.2444C9.45528 13.2444 6.92656 19.7975 6.71069 20.3526C6.69527 19.8437 6.32522 13.3215 6.32522 13.3215C6.10935 10.0527 3.11806 8.06359 0.697266 8.06359L3.62688 25.8417C7.34287 25.8263 9.34735 23.313 10.3958 20.6455C10.3958 20.6455 12.6316 14.8634 12.7241 14.6013C12.7395 14.848 14.3277 25.8417 14.3277 25.8417C18.0591 25.8417 20.0636 23.4826 21.1429 20.9077L26.37 8.06359C22.6848 8.06359 20.742 10.5769 19.7398 13.2598ZM54.6331 7.64728C52.3356 7.64728 50.5779 8.89622 49.0976 10.7311V10.7157L50.4237 0.0302734C47.3707 0.0302734 44.8882 2.68235 44.4103 6.62962L42.0974 25.703C43.8552 25.703 45.7209 25.1942 46.7231 23.899C47.6174 25.0554 48.9589 25.9805 50.9479 25.9805C56.0979 25.9805 59.6288 19.9979 59.6288 14.3854C59.598 9.26628 57.1155 7.64728 54.6331 7.64728ZM54.1551 16.8216C53.6154 19.9517 51.8731 22.0795 50.1924 22.0795C48.4963 22.0795 47.7716 21.324 47.7716 21.324C48.0954 18.5794 48.2958 16.8987 48.9126 15.4493C49.5294 13.9999 50.9942 11.6871 52.5207 11.6871C54.0163 11.6871 54.6948 13.6761 54.1551 16.8216ZM72.4883 8.06359H68.8957L68.9111 7.87857C69.1578 5.53487 69.7129 4.30135 71.5478 4.1009C72.7967 3.97755 73.3518 3.32995 73.4906 2.62067C73.5985 2.06559 73.9377 0.138207 73.9377 0.138207C66.7216 0.0919496 64.455 3.2066 63.8691 7.95566L63.8537 8.06359H63.7766C62.6047 8.06359 61.3095 9.38963 61.0937 11.0703L61.0166 11.6871H63.4219L61.402 28.3705L60.7853 31.3618C60.8624 31.3618 60.9549 31.3772 61.032 31.3772C64.4087 31.2538 66.5674 28.5863 67.0454 24.7162L68.6181 11.6871H69.7437C70.8539 11.6871 72.1491 10.5769 72.3804 8.72661L72.4883 8.06359ZM91.1762 7.75521C87.0285 7.75521 83.112 10.8082 81.9094 15.6035C80.7067 20.3988 82.5261 26.073 88.6321 26.073C94.7226 26.073 98.2381 20.1675 98.2381 15.2489C98.2381 10.361 94.923 7.75521 91.1762 7.75521ZM92.8569 16.6674C92.641 18.8415 91.685 22.1412 89.0638 22.1412C86.4271 22.1412 86.7972 18.2864 87.0593 16.4516C87.3369 14.4933 88.4316 11.7025 90.7907 11.7025C92.9031 11.7025 93.1036 14.2158 92.8569 16.6674ZM118.73 13.2598C118.73 13.2598 116.648 19.7975 116.479 20.3372C116.417 19.7821 114.891 8.04818 114.891 8.04818C111.344 8.04818 109.448 10.5769 108.446 13.2444C108.446 13.2444 105.917 19.7975 105.701 20.3526C105.686 19.8437 105.315 13.3215 105.315 13.3215C105.1 10.0527 102.108 8.06359 99.6875 8.06359L102.602 25.8417C106.318 25.8263 108.322 23.313 109.371 20.6455C109.371 20.6455 111.606 14.8634 111.684 14.6013C111.714 14.848 113.287 25.8417 113.287 25.8417C117.019 25.8417 119.023 23.4826 120.102 20.9077L125.329 8.06359C121.66 8.06359 119.717 10.5769 118.73 13.2598ZM75.8805 0.138207L72.8584 24.5157L72.2416 27.5224C72.3187 27.5224 72.4112 27.5378 72.4883 27.5378C75.7417 27.4916 78.0546 24.6391 78.4863 21.0464L80.2287 7.06136C80.7529 2.79028 78.2088 0.138207 75.8805 0.138207Z" fill="#4353FF"/>
</svg>
